<svg width="3041" height="1217" viewBox="0 0 3041 1217" fill="none" xmlns="http://www.w3.org/2000/svg">
<g clip-path="url(#clip0_81_222)">
<path d="M182.104 13.6577L182.289 13.5647C184.245 12.5806 185.836 10.965 186.802 9.00259C188.367 5.82368 192.919 5.80606 194.445 8.97327C195.405 10.9669 197.002 12.5843 198.983 13.5704L199.145 13.6512C202.469 15.3062 202.469 20.0493 199.145 21.7043L198.983 21.785C197.002 22.7712 195.405 24.3886 194.445 26.3822C192.919 29.5494 188.367 29.5318 186.802 26.3529C185.836 24.3905 184.245 22.7748 182.289 21.7907L182.104 21.6978C178.801 20.0359 178.801 15.3196 182.104 13.6577Z" stroke="#1400FF"/>
<path d="M1226.1 316.658L1226.29 316.565C1228.25 315.581 1229.84 313.965 1230.8 312.003C1232.37 308.824 1236.92 308.806 1238.44 311.973C1239.41 313.967 1241 315.584 1242.98 316.57L1243.14 316.651C1246.47 318.306 1246.47 323.049 1243.14 324.704L1242.98 324.785C1241 325.771 1239.41 327.389 1238.44 329.382C1236.92 332.549 1232.37 332.532 1230.8 329.353C1229.84 327.39 1228.25 325.775 1226.29 324.791L1226.1 324.698C1222.8 323.036 1222.8 318.32 1226.1 316.658Z" stroke="#1400FF"/>
<path d="M1361.1 47.6577L1361.29 47.5647C1363.25 46.5806 1364.84 44.965 1365.8 43.0026C1367.37 39.8237 1371.92 39.8061 1373.44 42.9733C1374.41 44.9669 1376 46.5843 1377.98 47.5704L1378.14 47.6512C1381.47 49.3062 1381.47 54.0493 1378.14 55.7043L1377.98 55.785C1376 56.7712 1374.41 58.3886 1373.44 60.3822C1371.92 63.5494 1367.37 63.5318 1365.8 60.3529C1364.84 58.3905 1363.25 56.7748 1361.29 55.7907L1361.1 55.6978C1357.8 54.0359 1357.8 49.3196 1361.1 47.6577Z" stroke="#1400FF"/>
<path d="M876.104 173.658L876.289 173.565C878.245 172.581 879.836 170.965 880.802 169.003C882.367 165.824 886.919 165.806 888.445 168.973C889.405 170.967 891.002 172.584 892.983 173.57L893.145 173.651C896.469 175.306 896.469 180.049 893.145 181.704L892.983 181.785C891.002 182.771 889.405 184.389 888.445 186.382C886.919 189.549 882.367 189.532 880.802 186.353C879.836 184.39 878.245 182.775 876.289 181.791L876.104 181.698C872.801 180.036 872.801 175.32 876.104 173.658Z" stroke="#1400FF"/>
<path d="M941.104 83.6577L941.289 83.5647C943.245 82.5806 944.836 80.965 945.802 79.0026C947.367 75.8237 951.919 75.8061 953.445 78.9733C954.405 80.9669 956.002 82.5843 957.983 83.5704L958.145 83.6512C961.469 85.3062 961.469 90.0493 958.145 91.7043L957.983 91.785C956.002 92.7712 954.405 94.3886 953.445 96.3822C951.919 99.5494 947.367 99.5318 945.802 96.3529C944.836 94.3905 943.245 92.7748 941.289 91.7907L941.104 91.6978C937.801 90.0359 937.801 85.3196 941.104 83.6577Z" stroke="#1400FF"/>
<path d="M581.104 49.6577L581.289 49.5647C583.245 48.5806 584.836 46.965 585.802 45.0026C587.367 41.8237 591.919 41.8061 593.445 44.9733C594.405 46.9669 596.002 48.5843 597.983 49.5704L598.145 49.6512C601.469 51.3062 601.469 56.0493 598.145 57.7043L597.983 57.785C596.002 58.7712 594.405 60.3886 593.445 62.3822C591.919 65.5494 587.367 65.5318 585.802 62.3529C584.836 60.3905 583.245 58.7748 581.289 57.7907L581.104 57.6978C577.801 56.0359 577.801 51.3196 581.104 49.6577Z" stroke="#1400FF"/>
<path d="M410.104 324.658L410.289 324.565C412.245 323.581 413.836 321.965 414.802 320.003C416.367 316.824 420.919 316.806 422.445 319.973C423.405 321.967 425.002 323.584 426.983 324.57L427.145 324.651C430.469 326.306 430.469 331.049 427.145 332.704L426.983 332.785C425.002 333.771 423.405 335.389 422.445 337.382C420.919 340.549 416.367 340.532 414.802 337.353C413.836 335.39 412.245 333.775 410.289 332.791L410.104 332.698C406.801 331.036 406.801 326.32 410.104 324.658Z" stroke="#1400FF"/>
<path d="M38.1043 119.658L38.289 119.565C40.2454 118.581 41.8359 116.965 42.8022 115.003C44.3675 111.824 48.9194 111.806 50.445 114.973C51.4053 116.967 53.0018 118.584 54.9828 119.57L55.1449 119.651C58.4695 121.306 58.4695 126.049 55.1449 127.704L54.9827 127.785C53.0018 128.771 51.4053 130.389 50.445 132.382C48.9194 135.549 44.3675 135.532 42.8022 132.353C41.8359 130.39 40.2454 128.775 38.289 127.791L38.1043 127.698C34.8005 126.036 34.8005 121.32 38.1043 119.658Z" stroke="#1400FF"/>
<path d="M1280.38 583.711L1268.36 589.671C1266.32 590.686 1264.66 592.342 1263.64 594.387L1258.09 605.492C1256.42 608.849 1251.61 608.801 1250 605.413L1244.75 594.363C1243.75 592.257 1242.08 590.544 1240 589.494L1227.99 583.43C1224.67 581.756 1224.7 577.011 1228.03 575.373L1240.11 569.442C1242.2 568.415 1243.9 566.72 1244.92 564.626L1250.29 553.635C1251.93 550.264 1256.74 550.27 1258.38 553.645L1263.8 564.811C1264.8 566.867 1266.44 568.541 1268.48 569.579L1280.42 575.671C1283.72 577.351 1283.69 582.067 1280.38 583.711Z" stroke="#1400FF"/>
<path d="M239.056 256.013L227.044 261.973C224.996 262.989 223.337 264.644 222.316 266.689L216.771 277.794C215.095 281.151 210.289 281.104 208.68 277.715L203.433 266.665C202.433 264.56 200.76 262.847 198.679 261.796L186.665 255.732C183.348 254.058 183.374 249.313 186.709 247.675L198.79 241.745C200.883 240.717 202.574 239.023 203.597 236.928L208.966 225.937C210.613 222.566 215.419 222.572 217.057 225.947L222.479 237.113C223.477 239.169 225.119 240.843 227.154 241.881L239.101 247.973C242.395 249.653 242.369 254.37 239.056 256.013Z" stroke="#1400FF"/>
<path d="M101.583 492.2L89.5706 498.16C87.5236 499.175 85.8637 500.831 84.843 502.875L79.2982 513.981C77.6224 517.338 72.8166 517.29 71.2072 513.901L65.9599 502.852C64.9598 500.746 63.2874 499.033 61.2062 497.983L49.1919 491.919C45.875 490.245 45.9012 485.499 49.2364 483.862L61.317 477.931C63.4096 476.904 65.1008 475.209 66.1241 473.115L71.4932 462.124C73.1399 458.753 77.9459 458.759 79.5846 462.134L85.0063 473.3C86.0044 475.355 87.6459 477.029 89.6816 478.067L101.628 484.16C104.922 485.84 104.896 490.556 101.583 492.2Z" stroke="#1400FF"/>
<path d="M588.167 348.945L576.154 354.905C574.107 355.92 572.447 357.576 571.426 359.62L565.882 370.726C564.206 374.083 559.4 374.035 557.791 370.646L552.543 359.597C551.543 357.491 549.871 355.778 547.79 354.728L535.775 348.664C532.459 346.99 532.485 342.244 535.82 340.607L547.9 334.676C549.993 333.649 551.684 331.954 552.708 329.86L558.077 318.869C559.723 315.498 564.529 315.504 566.168 318.879L571.59 330.045C572.588 332.101 574.229 333.774 576.265 334.813L588.211 340.905C591.506 342.585 591.48 347.301 588.167 348.945Z" stroke="#1400FF"/>
<path d="M521.776 458.52L509.763 464.48C507.716 465.495 506.056 467.151 505.035 469.196L499.491 480.301C497.815 483.658 493.009 483.611 491.4 480.222L486.152 469.172C485.152 467.067 483.48 465.353 481.399 464.303L469.384 458.239C466.067 456.565 466.094 451.82 469.429 450.182L481.509 444.251C483.602 443.224 485.293 441.53 486.316 439.435L491.686 428.444C493.332 425.073 498.138 425.079 499.777 428.454L505.199 439.62C506.197 441.676 507.838 443.35 509.874 444.388L521.82 450.48C525.115 452.16 525.089 456.876 521.776 458.52Z" stroke="#1400FF"/>
<path d="M881.583 494.508L869.57 500.468C867.523 501.483 865.863 503.139 864.842 505.183L859.297 516.289C857.622 519.646 852.816 519.598 851.206 516.209L845.959 505.16C844.959 503.054 843.287 501.341 841.206 500.291L829.191 494.227C825.874 492.553 825.9 487.807 829.236 486.17L841.316 480.239C843.409 479.212 845.1 477.517 846.123 475.423L851.492 464.432C853.139 461.061 857.945 461.067 859.584 464.442L865.006 475.608C866.004 477.664 867.645 479.337 869.681 480.376L881.627 486.468C884.922 488.148 884.896 492.864 881.583 494.508Z" stroke="#1400FF"/>
<path d="M1055.09 252.52L1043.07 258.48C1041.03 259.495 1039.37 261.151 1038.35 263.196L1032.8 274.301C1031.13 277.658 1026.32 277.611 1024.71 274.222L1019.46 263.172C1018.46 261.067 1016.79 259.353 1014.71 258.303L1002.7 252.239C999.379 250.565 999.405 245.82 1002.74 244.182L1014.82 238.251C1016.91 237.224 1018.6 235.53 1019.63 233.435L1025 222.444C1026.64 219.073 1031.45 219.079 1033.09 222.454L1038.51 233.62C1039.51 235.676 1041.15 237.35 1043.19 238.388L1055.13 244.48C1058.43 246.16 1058.4 250.876 1055.09 252.52Z" stroke="#1400FF"/>
<path d="M1413.96 370.54L1401.95 376.499C1399.9 377.515 1398.24 379.171 1397.22 381.215L1391.68 392.321C1390 395.677 1385.19 395.63 1383.58 392.241L1378.34 381.192C1377.34 379.086 1375.66 377.373 1373.58 376.322L1361.57 370.259C1358.25 368.584 1358.28 363.839 1361.61 362.202L1373.69 356.271C1375.79 355.244 1377.48 353.549 1378.5 351.454L1383.87 340.464C1385.52 337.093 1390.32 337.099 1391.96 340.473L1397.38 351.64C1398.38 353.695 1400.02 355.369 1402.06 356.407L1414 362.5C1417.3 364.18 1417.27 368.896 1413.96 370.54Z" stroke="#1400FF"/>
<path d="M219.258 585.496L237.44 576.35C239.481 575.323 241.132 573.658 242.141 571.608L250.615 554.4C252.272 551.034 257.078 551.055 258.706 554.435L266.939 571.527C267.951 573.627 269.633 575.331 271.72 576.37L290.035 585.488C293.361 587.143 293.361 591.889 290.035 593.545L271.72 602.662C269.633 603.701 267.951 605.405 266.939 607.505L258.706 624.598C257.078 627.978 252.272 627.998 250.615 624.633L242.141 607.424C241.132 605.374 239.481 603.709 237.44 602.682L219.258 593.536C215.954 591.874 215.954 587.158 219.258 585.496Z" stroke="#1400FF"/>
<path d="M1246.26 981.528L1264.44 972.382C1266.48 971.355 1268.13 969.69 1269.14 967.64L1277.61 950.431C1279.27 947.066 1284.08 947.086 1285.71 950.466L1293.94 967.559C1294.95 969.659 1296.63 971.363 1298.72 972.402L1317.03 981.519C1320.36 983.175 1320.36 987.92 1317.03 989.576L1298.72 998.694C1296.63 999.733 1294.95 1001.44 1293.94 1003.54L1285.71 1020.63C1284.08 1024.01 1279.27 1024.03 1277.61 1020.66L1269.14 1003.46C1268.13 1001.41 1266.48 999.741 1264.44 998.714L1246.26 989.568C1242.95 987.906 1242.95 983.19 1246.26 981.528Z" stroke="#1400FF"/>
<path d="M1398.26 619.496L1416.44 610.35C1418.48 609.323 1420.13 607.658 1421.14 605.608L1429.61 588.4C1431.27 585.034 1436.08 585.055 1437.71 588.435L1445.94 605.527C1446.95 607.627 1448.63 609.331 1450.72 610.37L1469.03 619.488C1472.36 621.143 1472.36 625.889 1469.03 627.545L1450.72 636.662C1448.63 637.701 1446.95 639.405 1445.94 641.505L1437.71 658.598C1436.08 661.978 1431.27 661.998 1429.61 658.633L1421.14 641.424C1420.13 639.374 1418.48 637.709 1416.44 636.682L1398.26 627.536C1394.95 625.874 1394.95 621.158 1398.26 619.496Z" stroke="#1400FF"/>
<path d="M831.951 834.528L850.133 825.382C852.174 824.355 853.825 822.69 854.835 820.64L863.308 803.431C864.965 800.066 869.771 800.086 871.399 803.466L879.632 820.559C880.644 822.659 882.326 824.363 884.413 825.402L902.728 834.519C906.054 836.175 906.054 840.92 902.728 842.576L884.413 851.694C882.326 852.733 880.644 854.437 879.632 856.537L871.399 873.629C869.771 877.009 864.965 877.03 863.308 873.664L854.835 856.456C853.825 854.406 852.174 852.741 850.133 851.714L831.951 842.568C828.647 840.906 828.647 836.19 831.951 834.528Z" stroke="#1400FF"/>
<path d="M975.104 701.528L993.286 692.382C995.328 691.355 996.978 689.69 997.988 687.64L1006.46 670.431C1008.12 667.066 1012.92 667.086 1014.55 670.466L1022.79 687.559C1023.8 689.659 1025.48 691.363 1027.57 692.402L1045.88 701.519C1049.21 703.175 1049.21 707.92 1045.88 709.576L1027.57 718.694C1025.48 719.733 1023.8 721.437 1022.79 723.537L1014.55 740.629C1012.92 744.009 1008.12 744.03 1006.46 740.664L997.988 723.456C996.978 721.406 995.328 719.741 993.286 718.714L975.104 709.568C971.801 707.906 971.801 703.19 975.104 701.528Z" stroke="#1400FF"/>
<path d="M618.258 621.496L636.44 612.35C638.481 611.323 640.132 609.658 641.141 607.608L649.615 590.4C651.272 587.034 656.078 587.055 657.706 590.435L665.939 607.527C666.951 609.627 668.633 611.331 670.72 612.37L689.035 621.488C692.361 623.143 692.361 627.889 689.035 629.545L670.72 638.662C668.633 639.701 666.951 641.405 665.939 643.505L657.706 660.598C656.078 663.978 651.272 663.998 649.615 660.633L641.141 643.424C640.132 641.374 638.481 639.709 636.44 638.682L618.258 629.536C614.954 627.874 614.954 623.158 618.258 621.496Z" stroke="#1400FF"/>
<path d="M407.951 854.528L426.133 845.382C428.174 844.355 429.825 842.69 430.834 840.64L439.308 823.431C440.965 820.066 445.771 820.086 447.399 823.466L455.632 840.559C456.644 842.659 458.326 844.363 460.413 845.402L478.728 854.519C482.054 856.175 482.054 860.92 478.728 862.576L460.413 871.694C458.326 872.733 456.644 874.437 455.632 876.537L447.399 893.629C445.771 897.009 440.965 897.03 439.308 893.664L430.834 876.456C429.825 874.406 428.174 872.741 426.133 871.714L407.951 862.568C404.647 860.906 404.647 856.19 407.951 854.528Z" stroke="#1400FF"/>
<path d="M78.1043 782.528L96.2863 773.382C98.3277 772.355 99.9784 770.69 100.988 768.64L109.461 751.431C111.118 748.066 115.924 748.086 117.553 751.466L125.786 768.559C126.797 770.659 128.479 772.363 130.566 773.402L148.881 782.519C152.207 784.175 152.207 788.92 148.881 790.576L130.566 799.694C128.479 800.733 126.797 802.437 125.786 804.537L117.553 821.629C115.924 825.009 111.118 825.03 109.461 821.664L100.988 804.456C99.9784 802.406 98.3277 800.741 96.2863 799.714L78.1043 790.568C74.8005 788.906 74.8005 784.19 78.1043 782.528Z" stroke="#1400FF"/>
<path d="M1295.53 1158.61L1264.86 1173.83C1262.81 1174.85 1261.15 1176.5 1260.13 1178.55L1245.52 1207.82C1243.84 1211.18 1239.04 1211.13 1237.43 1207.74L1223.5 1178.42C1222.5 1176.32 1220.83 1174.61 1218.75 1173.55L1187.99 1158.03C1184.67 1156.35 1184.7 1151.61 1188.03 1149.97L1218.96 1134.78C1221.06 1133.76 1222.75 1132.06 1223.77 1129.97L1238.02 1100.81C1239.66 1097.44 1244.47 1097.44 1246.11 1100.82L1260.4 1130.25C1261.4 1132.31 1263.04 1133.98 1265.07 1135.02L1295.58 1150.57C1298.87 1152.25 1298.84 1156.97 1295.53 1158.61Z" stroke="#1400FF"/>
<path d="M272.564 847.883L241.893 863.1C239.846 864.116 238.186 865.772 237.165 867.816L222.55 897.089C220.874 900.446 216.068 900.398 214.459 897.009L200.537 867.695C199.537 865.589 197.865 863.876 195.784 862.825L165.019 847.298C161.702 845.624 161.728 840.878 165.064 839.241L195.998 824.054C198.09 823.027 199.782 821.332 200.805 819.238L215.049 790.078C216.696 786.708 221.502 786.713 223.141 790.088L237.432 819.521C238.43 821.576 240.071 823.25 242.107 824.288L272.609 839.843C275.903 841.523 275.877 846.24 272.564 847.883Z" stroke="#1400FF"/>
<path d="M116.737 1100.1L86.0653 1115.32C84.0183 1116.33 82.3585 1117.99 81.3377 1120.03L66.7225 1149.31C65.0467 1152.66 60.2409 1152.62 58.6315 1149.23L44.7099 1119.91C43.7098 1117.81 42.0374 1116.09 39.9562 1115.04L9.19176 1099.52C5.87485 1097.84 5.90105 1093.1 9.23625 1091.46L40.1704 1076.27C42.263 1075.24 43.9542 1073.55 44.9775 1071.46L59.2221 1042.3C60.8688 1038.93 65.6748 1038.93 67.3134 1042.31L81.6045 1071.74C82.6026 1073.79 84.244 1075.47 86.2797 1076.51L116.781 1092.06C120.076 1093.74 120.05 1098.46 116.737 1100.1Z" stroke="#1400FF"/>
<path d="M636.737 990.249L606.065 1005.47C604.018 1006.48 602.358 1008.14 601.338 1010.18L586.722 1039.45C585.047 1042.81 580.241 1042.76 578.631 1039.38L564.71 1010.06C563.71 1007.95 562.037 1006.24 559.956 1005.19L529.192 989.663C525.875 987.989 525.901 983.244 529.236 981.607L560.17 966.42C562.263 965.392 563.954 963.698 564.977 961.603L579.222 932.444C580.869 929.073 585.675 929.079 587.313 932.454L601.604 961.887C602.603 963.942 604.244 965.616 606.28 966.654L636.781 982.209C640.076 983.889 640.05 988.605 636.737 990.249Z" stroke="#1400FF"/>
<path d="M536.929 1066.42L506.258 1081.64C504.211 1082.65 502.551 1084.31 501.53 1086.35L486.915 1115.63C485.239 1118.98 480.433 1118.94 478.824 1115.55L464.902 1086.23C463.902 1084.13 462.23 1082.41 460.149 1081.36L429.384 1065.84C426.067 1064.16 426.093 1059.42 429.429 1057.78L460.363 1042.59C462.455 1041.57 464.147 1039.87 465.17 1037.78L479.414 1008.62C481.061 1005.25 485.867 1005.25 487.506 1008.63L501.797 1038.06C502.795 1040.11 504.436 1041.79 506.472 1042.83L536.973 1058.38C540.268 1060.06 540.242 1064.78 536.929 1066.42Z" stroke="#1400FF"/>
<path d="M896.736 1102.41L866.065 1117.63C864.018 1118.64 862.358 1120.3 861.337 1122.34L846.722 1151.62C845.046 1154.97 840.24 1154.92 838.631 1151.54L824.709 1122.22C823.709 1120.12 822.037 1118.4 819.956 1117.35L789.191 1101.82C785.874 1100.15 785.9 1095.4 789.236 1093.77L820.17 1078.58C822.262 1077.55 823.954 1075.86 824.977 1073.76L839.221 1044.6C840.868 1041.23 845.674 1041.24 847.313 1044.61L861.604 1074.05C862.602 1076.1 864.243 1077.78 866.279 1078.81L896.78 1094.37C900.075 1096.05 900.049 1100.77 896.736 1102.41Z" stroke="#1400FF"/>
<path d="M1088.6 844.39L1057.92 859.607C1055.88 860.623 1054.22 862.278 1053.2 864.323L1038.58 893.596C1036.91 896.952 1032.1 896.905 1030.49 893.516L1016.57 864.202C1015.57 862.096 1013.9 860.383 1011.81 859.332L981.05 843.805C977.733 842.13 977.76 837.385 981.095 835.748L1012.03 820.561C1014.12 819.534 1015.81 817.839 1016.84 815.744L1031.08 786.585C1032.73 783.214 1037.53 783.22 1039.17 786.595L1053.46 816.028C1054.46 818.083 1056.1 819.757 1058.14 820.795L1088.64 836.35C1091.93 838.03 1091.91 842.746 1088.6 844.39Z" stroke="#1400FF"/>
<path d="M1468.74 1058.25L1438.07 1073.47C1436.02 1074.48 1434.36 1076.14 1433.34 1078.18L1418.72 1107.45C1417.05 1110.81 1412.24 1110.76 1410.63 1107.38L1396.71 1078.06C1395.71 1075.95 1394.04 1074.24 1391.96 1073.19L1361.19 1057.66C1357.88 1055.99 1357.9 1051.24 1361.24 1049.61L1392.17 1034.42C1394.26 1033.39 1395.95 1031.7 1396.98 1029.6L1411.22 1000.44C1412.87 997.073 1417.68 997.079 1419.31 1000.45L1433.6 1029.89C1434.6 1031.94 1436.24 1033.62 1438.28 1034.65L1468.78 1050.21C1472.08 1051.89 1472.05 1056.61 1468.74 1058.25Z" stroke="#1400FF"/>
<path d="M1330.76 182.658L1330.57 182.565C1328.62 181.581 1327.03 179.965 1326.06 178.003C1324.5 174.824 1319.94 174.806 1318.42 177.973C1317.46 179.967 1315.86 181.584 1313.88 182.57L1313.72 182.651C1310.39 184.306 1310.39 189.049 1313.72 190.704L1313.88 190.785C1315.86 191.771 1317.46 193.389 1318.42 195.382C1319.94 198.549 1324.5 198.532 1326.06 195.353C1327.03 193.39 1328.62 191.775 1330.57 190.791L1330.76 190.698C1334.06 189.036 1334.06 184.32 1330.76 182.658Z" stroke="#D100D1" stroke-opacity="0.7"/>
<path d="M297.759 556.626L297.574 556.533C295.618 555.549 294.027 553.933 293.061 551.971C291.496 548.792 286.944 548.774 285.418 551.942C284.458 553.935 282.862 555.553 280.881 556.539L280.718 556.619C277.394 558.274 277.394 563.018 280.718 564.673L280.881 564.753C282.862 565.739 284.458 567.357 285.418 569.35C286.944 572.518 291.496 572.5 293.061 569.321C294.027 567.359 295.618 565.743 297.574 564.759L297.759 564.666C301.063 563.004 301.063 558.288 297.759 556.626Z" stroke="#D100D1" stroke-opacity="0.7"/>
<path d="M152.251 268.658L152.066 268.565C150.11 267.581 148.519 265.965 147.553 264.003C145.988 260.824 141.436 260.806 139.91 263.973C138.95 265.967 137.353 267.584 135.372 268.57L135.21 268.651C131.886 270.306 131.886 275.049 135.21 276.704L135.372 276.785C137.353 277.771 138.95 279.389 139.91 281.382C141.436 284.549 145.988 284.532 147.553 281.353C148.519 279.39 150.11 277.775 152.066 276.791L152.251 276.698C155.555 275.036 155.555 270.32 152.251 268.658Z" stroke="#D100D1" stroke-opacity="0.7"/>
<path d="M647.759 555.658L647.574 555.565C645.618 554.581 644.027 552.965 643.061 551.003C641.496 547.824 636.944 547.806 635.418 550.973C634.458 552.967 632.862 554.584 630.881 555.57L630.718 555.651C627.394 557.306 627.394 562.049 630.718 563.704L630.881 563.785C632.862 564.771 634.458 566.389 635.418 568.382C636.944 571.549 641.496 571.532 643.061 568.353C644.027 566.39 645.618 564.775 647.574 563.791L647.759 563.698C651.063 562.036 651.063 557.32 647.759 555.658Z" stroke="#D100D1" stroke-opacity="0.7"/>
<path d="M571.759 324.658L571.574 324.565C569.618 323.581 568.027 321.965 567.061 320.003C565.496 316.824 560.944 316.806 559.418 319.973C558.458 321.967 556.862 323.584 554.881 324.57L554.718 324.651C551.394 326.306 551.394 331.049 554.718 332.704L554.881 332.785C556.862 333.771 558.458 335.389 559.418 337.382C560.944 340.549 565.496 340.532 567.061 337.353C568.027 335.39 569.618 333.775 571.574 332.791L571.759 332.698C575.063 331.036 575.063 326.32 571.759 324.658Z" stroke="#D100D1" stroke-opacity="0.7"/>
<path d="M932.251 270.658L932.066 270.565C930.11 269.581 928.52 267.965 927.553 266.003C925.988 262.824 921.436 262.806 919.91 265.973C918.95 267.967 917.354 269.584 915.373 270.57L915.211 270.651C911.886 272.306 911.886 277.049 915.211 278.704L915.373 278.785C917.354 279.771 918.95 281.389 919.91 283.382C921.436 286.549 925.988 286.532 927.553 283.353C928.52 281.39 930.11 279.775 932.066 278.791L932.251 278.698C935.555 277.036 935.555 272.32 932.251 270.658Z" stroke="#D100D1" stroke-opacity="0.7"/>
<path d="M1113.76 564.626L1113.57 564.533C1111.62 563.549 1110.03 561.933 1109.06 559.971C1107.5 556.792 1102.94 556.774 1101.42 559.942C1100.46 561.935 1098.86 563.553 1096.88 564.539L1096.72 564.619C1093.39 566.274 1093.39 571.018 1096.72 572.673L1096.88 572.753C1098.86 573.739 1100.46 575.357 1101.42 577.35C1102.94 580.518 1107.5 580.5 1109.06 577.321C1110.03 575.359 1111.62 573.743 1113.57 572.759L1113.76 572.666C1117.06 571.004 1117.06 566.288 1113.76 564.626Z" stroke="#D100D1" stroke-opacity="0.7"/>
<path d="M1468.76 342.658L1468.57 342.565C1466.62 341.581 1465.03 339.965 1464.06 338.003C1462.5 334.824 1457.94 334.806 1456.42 337.973C1455.46 339.967 1453.86 341.584 1451.88 342.57L1451.72 342.651C1448.39 344.306 1448.39 349.049 1451.72 350.704L1451.88 350.785C1453.86 351.771 1455.46 353.389 1456.42 355.382C1457.94 358.549 1462.5 358.532 1464.06 355.353C1465.03 353.39 1466.62 351.775 1468.57 350.791L1468.76 350.698C1472.06 349.036 1472.06 344.32 1468.76 342.658Z" stroke="#D100D1" stroke-opacity="0.7"/>
<path d="M251.332 824.743L263.345 830.703C265.392 831.718 267.052 833.374 268.073 835.418L273.617 846.524C275.293 849.88 280.099 849.833 281.708 846.444L286.956 835.395C287.956 833.289 289.628 831.576 291.709 830.526L303.724 824.462C307.041 822.788 307.014 818.042 303.679 816.405L291.599 810.474C289.506 809.447 287.815 807.752 286.791 805.658L281.422 794.667C279.776 791.296 274.97 791.302 273.331 794.677L267.909 805.843C266.911 807.898 265.27 809.572 263.234 810.61L251.288 816.703C247.993 818.383 248.019 823.099 251.332 824.743Z" stroke="#D100D1" stroke-opacity="0.7"/>
<path d="M1285.3 464.981L1297.31 470.941C1299.36 471.957 1301.02 473.613 1302.04 475.657L1307.58 486.763C1309.26 490.119 1314.07 490.072 1315.68 486.683L1320.92 475.634C1321.92 473.528 1323.6 471.815 1325.68 470.764L1337.69 464.7C1341.01 463.026 1340.98 458.281 1337.65 456.644L1325.57 450.713C1323.47 449.685 1321.78 447.991 1320.76 445.896L1315.39 434.906C1313.74 431.535 1308.94 431.54 1307.3 434.915L1301.88 446.082C1300.88 448.137 1299.24 449.811 1297.2 450.849L1285.25 456.941C1281.96 458.622 1281.99 463.338 1285.3 464.981Z" stroke="#D100D1" stroke-opacity="0.7"/>
<path d="M1430.13 784.231L1442.14 790.191C1444.19 791.207 1445.85 792.863 1446.87 794.907L1452.41 806.013C1454.09 809.369 1458.89 809.322 1460.5 805.933L1465.75 794.884C1466.75 792.778 1468.42 791.065 1470.5 790.014L1482.52 783.95C1485.83 782.276 1485.81 777.531 1482.47 775.894L1470.39 769.963C1468.3 768.935 1466.61 767.241 1465.59 765.146L1460.22 754.156C1458.57 750.785 1453.76 750.79 1452.13 754.165L1446.7 765.332C1445.71 767.387 1444.06 769.061 1442.03 770.099L1430.08 776.191C1426.79 777.872 1426.81 782.588 1430.13 784.231Z" stroke="#D100D1" stroke-opacity="0.7"/>
<path d="M935.697 588.913L947.709 594.873C949.756 595.889 951.416 597.544 952.437 599.589L957.982 610.694C959.658 614.051 964.463 614.004 966.073 610.615L971.32 599.565C972.32 597.46 973.993 595.746 976.074 594.696L988.088 588.632C991.405 586.958 991.379 582.213 988.044 580.575L975.963 574.644C973.87 573.617 972.179 571.923 971.156 569.828L965.787 558.837C964.14 555.466 959.334 555.472 957.695 558.847L952.274 570.013C951.276 572.069 949.634 573.743 947.598 574.781L935.652 580.873C932.358 582.553 932.384 587.269 935.697 588.913Z" stroke="#D100D1" stroke-opacity="0.7"/>
<path d="M1003.93 705.552L1015.95 711.512C1017.99 712.527 1019.65 714.183 1020.67 716.227L1026.22 727.333C1027.89 730.69 1032.7 730.642 1034.31 727.253L1039.56 716.204C1040.56 714.098 1042.23 712.385 1044.31 711.335L1056.33 705.271C1059.64 703.597 1059.62 698.851 1056.28 697.214L1044.2 691.283C1042.11 690.256 1040.42 688.561 1039.39 686.467L1034.02 675.476C1032.38 672.105 1027.57 672.111 1025.93 675.486L1020.51 686.652C1019.51 688.708 1017.87 690.381 1015.84 691.42L1003.89 697.512C1000.6 699.192 1000.62 703.908 1003.93 705.552Z" stroke="#D100D1" stroke-opacity="0.7"/>
<path d="M650.127 786.54L662.14 792.499C664.187 793.515 665.847 795.171 666.867 797.215L672.412 808.321C674.088 811.677 678.894 811.63 680.503 808.241L685.751 797.192C686.751 795.086 688.423 793.373 690.504 792.322L702.519 786.259C705.835 784.584 705.809 779.839 702.474 778.202L690.393 772.271C688.301 771.244 686.61 769.549 685.586 767.454L680.217 756.464C678.571 753.093 673.765 753.099 672.126 756.473L666.704 767.64C665.706 769.695 664.065 771.369 662.029 772.407L650.083 778.5C646.788 780.18 646.814 784.896 650.127 786.54Z" stroke="#D100D1" stroke-opacity="0.7"/>
<path d="M469.267 461.488L481.28 467.448C483.327 468.464 484.987 470.119 486.008 472.164L491.553 483.27C493.228 486.626 498.034 486.579 499.644 483.19L504.891 472.141C505.891 470.035 507.563 468.322 509.645 467.271L521.659 461.207C524.976 459.533 524.95 454.788 521.614 453.151L509.534 447.22C507.441 446.192 505.75 444.498 504.727 442.403L499.358 431.412C497.711 428.042 492.905 428.047 491.266 431.422L485.844 442.588C484.846 444.644 483.205 446.318 481.169 447.356L469.223 453.448C465.929 455.128 465.955 459.845 469.267 461.488Z" stroke="#D100D1" stroke-opacity="0.7"/>
<path d="M103.903 686.508L115.915 692.468C117.963 693.483 119.622 695.139 120.643 697.183L126.188 708.289C127.864 711.646 132.67 711.598 134.279 708.209L139.526 697.16C140.526 695.054 142.199 693.341 144.28 692.291L156.294 686.227C159.611 684.553 159.585 679.807 156.25 678.17L144.169 672.239C142.076 671.212 140.385 669.517 139.362 667.423L133.993 656.432C132.346 653.061 127.54 653.067 125.902 656.442L120.48 667.608C119.482 669.664 117.84 671.337 115.805 672.376L103.858 678.468C100.564 680.148 100.59 684.864 103.903 686.508Z" stroke="#D100D1" stroke-opacity="0.7"/>
<path d="M1312.45 826.528L1294.27 817.382C1292.23 816.355 1290.58 814.69 1289.57 812.64L1281.1 795.431C1279.44 792.066 1274.63 792.086 1273 795.466L1264.77 812.559C1263.76 814.659 1262.08 816.363 1259.99 817.402L1241.68 826.519C1238.35 828.175 1238.35 832.92 1241.68 834.576L1259.99 843.694C1262.08 844.733 1263.76 846.437 1264.77 848.537L1273 865.629C1274.63 869.009 1279.44 869.03 1281.1 865.664L1289.57 848.456C1290.58 846.406 1292.23 844.741 1294.27 843.714L1312.45 834.568C1315.76 832.906 1315.76 828.19 1312.45 826.528Z" stroke="#D100D1" stroke-opacity="0.7"/>
<path d="M260.606 1131.53L242.424 1122.38C240.382 1121.35 238.732 1119.69 237.722 1117.64L229.249 1100.43C227.592 1097.07 222.786 1097.09 221.157 1100.47L212.924 1117.56C211.912 1119.66 210.231 1121.36 208.144 1122.4L189.829 1131.52C186.503 1133.18 186.503 1137.92 189.829 1139.58L208.144 1148.69C210.231 1149.73 211.912 1151.44 212.924 1153.54L221.157 1170.63C222.786 1174.01 227.592 1174.03 229.249 1170.66L237.722 1153.46C238.732 1151.41 240.382 1149.74 242.424 1148.71L260.606 1139.57C263.909 1137.91 263.909 1133.19 260.606 1131.53Z" stroke="#D100D1" stroke-opacity="0.7"/>
<path d="M119.606 953.528L101.424 944.382C99.3822 943.355 97.7316 941.69 96.7221 939.64L88.2488 922.431C86.5915 919.066 81.7855 919.086 80.1575 922.466L71.9242 939.559C70.9125 941.659 69.2306 943.363 67.1437 944.402L48.8287 953.519C45.5026 955.175 45.5026 959.92 48.8287 961.576L67.1437 970.694C69.2306 971.733 70.9125 973.437 71.9241 975.537L80.1574 992.629C81.7855 996.009 86.5915 996.03 88.2488 992.664L96.7221 975.456C97.7316 973.406 99.3822 971.741 101.424 970.714L119.606 961.568C122.909 959.906 122.909 955.19 119.606 953.528Z" stroke="#D100D1" stroke-opacity="0.7"/>
<path d="M688.759 1059.53L670.577 1050.38C668.536 1049.35 666.885 1047.69 665.875 1045.64L657.402 1028.43C655.745 1025.07 650.939 1025.09 649.311 1028.47L641.077 1045.56C640.066 1047.66 638.384 1049.36 636.297 1050.4L617.982 1059.52C614.656 1061.18 614.656 1065.92 617.982 1067.58L636.297 1076.69C638.384 1077.73 640.066 1079.44 641.077 1081.54L649.311 1098.63C650.939 1102.01 655.745 1102.03 657.402 1098.66L665.875 1081.46C666.885 1079.41 668.536 1077.74 670.577 1076.71L688.759 1067.57C692.063 1065.91 692.063 1061.19 688.759 1059.53Z" stroke="#D100D1" stroke-opacity="0.7"/>
<path d="M539.606 989.528L521.424 980.382C519.382 979.355 517.732 977.69 516.722 975.64L508.249 958.431C506.592 955.066 501.786 955.086 500.157 958.466L491.924 975.559C490.912 977.659 489.231 979.363 487.144 980.402L468.829 989.519C465.503 991.175 465.503 995.92 468.829 997.576L487.144 1006.69C489.231 1007.73 490.912 1009.44 491.924 1011.54L500.157 1028.63C501.786 1032.01 506.592 1032.03 508.249 1028.66L516.722 1011.46C517.732 1009.41 519.382 1007.74 521.424 1006.71L539.606 997.568C542.909 995.906 542.909 991.19 539.606 989.528Z" stroke="#D100D1" stroke-opacity="0.7"/>
<path d="M913.452 862.528L895.27 853.382C893.229 852.355 891.578 850.69 890.569 848.64L882.095 831.431C880.438 828.066 875.632 828.086 874.004 831.466L865.771 848.559C864.759 850.659 863.077 852.363 860.99 853.402L842.675 862.519C839.349 864.175 839.349 868.92 842.675 870.576L860.99 879.694C863.077 880.733 864.759 882.437 865.771 884.537L874.004 901.629C875.632 905.009 880.438 905.03 882.095 901.664L890.569 884.456C891.578 882.406 893.229 880.741 895.27 879.714L913.452 870.568C916.756 868.906 916.756 864.19 913.452 862.528Z" stroke="#D100D1" stroke-opacity="0.7"/>
<path d="M1112.76 1079.53L1094.58 1070.38C1092.54 1069.35 1090.88 1067.69 1089.88 1065.64L1081.4 1048.43C1079.74 1045.07 1074.94 1045.09 1073.31 1048.47L1065.08 1065.56C1064.07 1067.66 1062.38 1069.36 1060.3 1070.4L1041.98 1079.52C1038.66 1081.18 1038.66 1085.92 1041.98 1087.58L1060.3 1096.69C1062.38 1097.73 1064.07 1099.44 1065.08 1101.54L1073.31 1118.63C1074.94 1122.01 1079.74 1122.03 1081.4 1118.66L1089.88 1101.46C1090.88 1099.41 1092.54 1097.74 1094.58 1096.71L1112.76 1087.57C1116.06 1085.91 1116.06 1081.19 1112.76 1079.53Z" stroke="#D100D1" stroke-opacity="0.7"/>
<path d="M1442.61 1007.53L1424.42 998.382C1422.38 997.355 1420.73 995.69 1419.72 993.64L1411.25 976.431C1409.59 973.066 1404.79 973.086 1403.16 976.466L1394.92 993.559C1393.91 995.659 1392.23 997.363 1390.14 998.402L1371.83 1007.52C1368.5 1009.18 1368.5 1013.92 1371.83 1015.58L1390.14 1024.69C1392.23 1025.73 1393.91 1027.44 1394.92 1029.54L1403.16 1046.63C1404.79 1050.01 1409.59 1050.03 1411.25 1046.66L1419.72 1029.46C1420.73 1027.41 1422.38 1025.74 1424.42 1024.71L1442.61 1015.57C1445.91 1013.91 1445.91 1009.19 1442.61 1007.53Z" stroke="#D100D1" stroke-opacity="0.7"/>
<path d="M1248.15 1072.88L1278.82 1088.1C1280.86 1089.12 1282.52 1090.77 1283.54 1092.82L1298.16 1122.09C1299.84 1125.45 1304.64 1125.4 1306.25 1122.01L1320.17 1092.69C1321.17 1090.59 1322.84 1088.88 1324.93 1087.83L1355.69 1072.3C1359.01 1070.62 1358.98 1065.88 1355.65 1064.24L1324.71 1049.05C1322.62 1048.03 1320.93 1046.33 1319.9 1044.24L1305.66 1015.08C1304.01 1011.71 1299.21 1011.71 1297.57 1015.09L1283.28 1044.52C1282.28 1046.58 1280.64 1048.25 1278.6 1049.29L1248.1 1064.84C1244.81 1066.52 1244.83 1071.24 1248.15 1072.88Z" stroke="#D100D1" stroke-opacity="0.7"/>
<path d="M1390.08 1237.06C1386.79 1238.74 1386.81 1243.46 1390.13 1245.1L1420.8 1260.32C1422.84 1261.33 1424.5 1262.99 1425.53 1265.03L1440.14 1294.31C1441.82 1297.66 1446.62 1297.62 1448.23 1294.23L1462.15 1264.91C1463.15 1262.81 1464.83 1261.09 1466.91 1260.04L1497.67 1244.52C1500.99 1242.84 1500.96 1238.1 1497.63 1236.46L1466.69 1221.27C1464.6 1220.24 1462.91 1218.55 1461.89 1216.46L1447.64 1187.3C1445.99 1183.93 1441.19 1183.93 1439.55 1187.31L1425.26 1216.74C1424.26 1218.79 1422.62 1220.47 1420.58 1221.51L1390.08 1237.06Z" stroke="#D100D1" stroke-opacity="0.7"/>
<path d="M870.126 1158.25L900.798 1173.47C902.845 1174.48 904.505 1176.14 905.525 1178.18L920.141 1207.45C921.816 1210.81 926.622 1210.76 928.232 1207.38L942.153 1178.06C943.153 1175.95 944.826 1174.24 946.907 1173.19L977.671 1157.66C980.988 1155.99 980.962 1151.24 977.627 1149.61L946.693 1134.42C944.6 1133.39 942.909 1131.7 941.886 1129.6L927.641 1100.44C925.994 1097.07 921.188 1097.08 919.55 1100.45L905.259 1129.89C904.26 1131.94 902.619 1133.62 900.583 1134.65L870.082 1150.21C866.787 1151.89 866.813 1156.61 870.126 1158.25Z" stroke="#D100D1" stroke-opacity="0.7"/>
<path d="M969.89 1203.38C966.595 1205.06 966.621 1209.78 969.934 1211.42L1000.61 1226.64C1002.65 1227.65 1004.31 1229.31 1005.33 1231.35L1019.95 1260.63C1021.62 1263.98 1026.43 1263.94 1028.04 1260.55L1041.96 1231.23C1042.96 1229.13 1044.63 1227.41 1046.71 1226.36L1077.48 1210.84C1080.8 1209.16 1080.77 1204.42 1077.43 1202.78L1046.5 1187.59C1044.41 1186.57 1042.72 1184.87 1041.69 1182.78L1027.45 1153.62C1025.8 1150.25 1021 1150.25 1019.36 1153.63L1005.07 1183.06C1004.07 1185.11 1002.43 1186.79 1000.39 1187.83L969.89 1203.38Z" stroke="#D100D1" stroke-opacity="0.7"/>
<path d="M610.083 1239.37C606.788 1241.05 606.814 1245.77 610.127 1247.41L640.799 1262.63C642.846 1263.64 644.506 1265.3 645.526 1267.34L660.142 1296.62C661.817 1299.97 666.623 1299.92 668.233 1296.54L682.154 1267.22C683.154 1265.12 684.827 1263.4 686.908 1262.35L717.672 1246.82C720.989 1245.15 720.963 1240.4 717.628 1238.77L686.694 1223.58C684.601 1222.55 682.91 1220.86 681.887 1218.76L667.642 1189.6C665.995 1186.23 661.189 1186.24 659.551 1189.61L645.26 1219.05C644.261 1221.1 642.62 1222.78 640.584 1223.81L610.083 1239.37Z" stroke="#D100D1" stroke-opacity="0.7"/>
<path d="M38.0822 1218.21C34.7877 1219.89 34.8137 1224.61 38.1266 1226.25L68.7979 1241.47C70.845 1242.48 72.5048 1244.14 73.5255 1246.18L88.1408 1275.45C89.8166 1278.81 94.6224 1278.76 96.2318 1275.38L110.153 1246.06C111.153 1243.95 112.826 1242.24 114.907 1241.19L145.672 1225.66C148.988 1223.99 148.962 1219.24 145.627 1217.61L114.693 1202.42C112.6 1201.39 110.909 1199.7 109.886 1197.6L95.6412 1168.44C93.9945 1165.07 89.1885 1165.08 87.5498 1168.45L73.2588 1197.89C72.2607 1199.94 70.6193 1201.62 68.5836 1202.65L38.0822 1218.21Z" stroke="#D100D1" stroke-opacity="0.7"/>
<path d="M1716.1 31.6577L1716.29 31.5647C1718.25 30.5806 1719.84 28.965 1720.8 27.0026C1722.37 23.8237 1726.92 23.8061 1728.44 26.9733C1729.41 28.9669 1731 30.5843 1732.98 31.5704L1733.14 31.6512C1736.47 33.3062 1736.47 38.0493 1733.14 39.7043L1732.98 39.785C1731 40.7712 1729.41 42.3886 1728.44 44.3822C1726.92 47.5494 1722.37 47.5318 1720.8 44.3529C1719.84 42.3905 1718.25 40.7748 1716.29 39.7907L1716.1 39.6978C1712.8 38.0359 1712.8 33.3196 1716.1 31.6577Z" stroke="#1400FF"/>
<path d="M2760.1 334.658L2760.29 334.565C2762.25 333.581 2763.84 331.965 2764.8 330.003C2766.37 326.824 2770.92 326.806 2772.44 329.973C2773.41 331.967 2775 333.584 2776.98 334.57L2777.14 334.651C2780.47 336.306 2780.47 341.049 2777.14 342.704L2776.98 342.785C2775 343.771 2773.41 345.389 2772.44 347.382C2770.92 350.549 2766.37 350.532 2764.8 347.353C2763.84 345.39 2762.25 343.775 2760.29 342.791L2760.1 342.698C2756.8 341.036 2756.8 336.32 2760.1 334.658Z" stroke="#1400FF"/>
<path d="M2895.1 65.6577L2895.29 65.5647C2897.25 64.5806 2898.84 62.965 2899.8 61.0026C2901.37 57.8237 2905.92 57.8061 2907.44 60.9733C2908.41 62.9669 2910 64.5843 2911.98 65.5704L2912.14 65.6512C2915.47 67.3062 2915.47 72.0493 2912.14 73.7043L2911.98 73.785C2910 74.7712 2908.41 76.3886 2907.44 78.3822C2905.92 81.5494 2901.37 81.5318 2899.8 78.3529C2898.84 76.3905 2897.25 74.7748 2895.29 73.7907L2895.1 73.6978C2891.8 72.0359 2891.8 67.3196 2895.1 65.6577Z" stroke="#1400FF"/>
<path d="M2410.1 191.658L2410.29 191.565C2412.25 190.581 2413.84 188.965 2414.8 187.003C2416.37 183.824 2420.92 183.806 2422.44 186.973C2423.41 188.967 2425 190.584 2426.98 191.57L2427.14 191.651C2430.47 193.306 2430.47 198.049 2427.14 199.704L2426.98 199.785C2425 200.771 2423.41 202.389 2422.44 204.382C2420.92 207.549 2416.37 207.532 2414.8 204.353C2413.84 202.39 2412.25 200.775 2410.29 199.791L2410.1 199.698C2406.8 198.036 2406.8 193.32 2410.1 191.658Z" stroke="#1400FF"/>
<path d="M2475.1 101.658L2475.29 101.565C2477.25 100.581 2478.84 98.965 2479.8 97.0026C2481.37 93.8237 2485.92 93.8061 2487.44 96.9733C2488.41 98.9669 2490 100.584 2491.98 101.57L2492.14 101.651C2495.47 103.306 2495.47 108.049 2492.14 109.704L2491.98 109.785C2490 110.771 2488.41 112.389 2487.44 114.382C2485.92 117.549 2481.37 117.532 2479.8 114.353C2478.84 112.39 2477.25 110.775 2475.29 109.791L2475.1 109.698C2471.8 108.036 2471.8 103.32 2475.1 101.658Z" stroke="#1400FF"/>
<path d="M2115.1 67.6577L2115.29 67.5647C2117.25 66.5806 2118.84 64.965 2119.8 63.0026C2121.37 59.8237 2125.92 59.8061 2127.44 62.9733C2128.41 64.9669 2130 66.5843 2131.98 67.5704L2132.14 67.6512C2135.47 69.3062 2135.47 74.0493 2132.14 75.7043L2131.98 75.785C2130 76.7712 2128.41 78.3886 2127.44 80.3822C2125.92 83.5494 2121.37 83.5318 2119.8 80.3529C2118.84 78.3905 2117.25 76.7748 2115.29 75.7907L2115.1 75.6978C2111.8 74.0359 2111.8 69.3196 2115.1 67.6577Z" stroke="#1400FF"/>
<path d="M1944.1 342.658L1944.29 342.565C1946.25 341.581 1947.84 339.965 1948.8 338.003C1950.37 334.824 1954.92 334.806 1956.44 337.973C1957.41 339.967 1959 341.584 1960.98 342.57L1961.14 342.651C1964.47 344.306 1964.47 349.049 1961.14 350.704L1960.98 350.785C1959 351.771 1957.41 353.389 1956.44 355.382C1954.92 358.549 1950.37 358.532 1948.8 355.353C1947.84 353.39 1946.25 351.775 1944.29 350.791L1944.1 350.698C1940.8 349.036 1940.8 344.32 1944.1 342.658Z" stroke="#1400FF"/>
<path d="M1572.1 137.658L1572.29 137.565C1574.25 136.581 1575.84 134.965 1576.8 133.003C1578.37 129.824 1582.92 129.806 1584.44 132.973C1585.41 134.967 1587 136.584 1588.98 137.57L1589.14 137.651C1592.47 139.306 1592.47 144.049 1589.14 145.704L1588.98 145.785C1587 146.771 1585.41 148.389 1584.44 150.382C1582.92 153.549 1578.37 153.532 1576.8 150.353C1575.84 148.39 1574.25 146.775 1572.29 145.791L1572.1 145.698C1568.8 144.036 1568.8 139.32 1572.1 137.658Z" stroke="#1400FF"/>
<path d="M2814.38 601.711L2802.36 607.671C2800.32 608.686 2798.66 610.342 2797.64 612.387L2792.09 623.492C2790.42 626.849 2785.61 626.801 2784 623.413L2778.75 612.363C2777.75 610.257 2776.08 608.544 2774 607.494L2761.99 601.43C2758.67 599.756 2758.7 595.011 2762.03 593.373L2774.11 587.442C2776.2 586.415 2777.9 584.72 2778.92 582.626L2784.29 571.635C2785.93 568.264 2790.74 568.27 2792.38 571.645L2797.8 582.811C2798.8 584.867 2800.44 586.541 2802.48 587.579L2814.42 593.671C2817.72 595.351 2817.69 600.067 2814.38 601.711Z" stroke="#1400FF"/>
<path d="M1773.06 274.013L1761.04 279.973C1759 280.989 1757.34 282.644 1756.32 284.689L1750.77 295.794C1749.1 299.151 1744.29 299.104 1742.68 295.715L1737.43 284.665C1736.43 282.56 1734.76 280.847 1732.68 279.796L1720.66 273.732C1717.35 272.058 1717.37 267.313 1720.71 265.675L1732.79 259.745C1734.88 258.717 1736.57 257.023 1737.6 254.928L1742.97 243.937C1744.61 240.566 1749.42 240.572 1751.06 243.947L1756.48 255.113C1757.48 257.169 1759.12 258.843 1761.15 259.881L1773.1 265.973C1776.4 267.653 1776.37 272.37 1773.06 274.013Z" stroke="#1400FF"/>
<path d="M1635.58 510.2L1623.57 516.16C1621.52 517.175 1619.86 518.831 1618.84 520.875L1613.3 531.981C1611.62 535.338 1606.82 535.29 1605.21 531.901L1599.96 520.852C1598.96 518.746 1597.29 517.033 1595.21 515.983L1583.19 509.919C1579.88 508.245 1579.9 503.499 1583.24 501.862L1595.32 495.931C1597.41 494.904 1599.1 493.209 1600.12 491.115L1605.49 480.124C1607.14 476.753 1611.95 476.759 1613.58 480.134L1619.01 491.3C1620 493.355 1621.65 495.029 1623.68 496.067L1635.63 502.16C1638.92 503.84 1638.9 508.556 1635.58 510.2Z" stroke="#1400FF"/>
<path d="M2122.17 366.945L2110.15 372.905C2108.11 373.92 2106.45 375.576 2105.43 377.62L2099.88 388.726C2098.21 392.083 2093.4 392.035 2091.79 388.646L2086.54 377.597C2085.54 375.491 2083.87 373.778 2081.79 372.728L2069.78 366.664C2066.46 364.99 2066.48 360.244 2069.82 358.607L2081.9 352.676C2083.99 351.649 2085.68 349.954 2086.71 347.86L2092.08 336.869C2093.72 333.498 2098.53 333.504 2100.17 336.879L2105.59 348.045C2106.59 350.101 2108.23 351.774 2110.26 352.813L2122.21 358.905C2125.51 360.585 2125.48 365.301 2122.17 366.945Z" stroke="#1400FF"/>
<path d="M2055.78 476.52L2043.76 482.48C2041.72 483.495 2040.06 485.151 2039.04 487.196L2033.49 498.301C2031.82 501.658 2027.01 501.611 2025.4 498.222L2020.15 487.172C2019.15 485.067 2017.48 483.353 2015.4 482.303L2003.38 476.239C2000.07 474.565 2000.09 469.82 2003.43 468.182L2015.51 462.251C2017.6 461.224 2019.29 459.53 2020.32 457.435L2025.69 446.444C2027.33 443.073 2032.14 443.079 2033.78 446.454L2039.2 457.62C2040.2 459.676 2041.84 461.35 2043.87 462.388L2055.82 468.48C2059.11 470.16 2059.09 474.876 2055.78 476.52Z" stroke="#1400FF"/>
<path d="M2415.58 512.508L2403.57 518.468C2401.52 519.483 2399.86 521.139 2398.84 523.183L2393.3 534.289C2391.62 537.646 2386.82 537.598 2385.21 534.209L2379.96 523.16C2378.96 521.054 2377.29 519.341 2375.21 518.291L2363.19 512.227C2359.87 510.553 2359.9 505.807 2363.24 504.17L2375.32 498.239C2377.41 497.212 2379.1 495.517 2380.12 493.423L2385.49 482.432C2387.14 479.061 2391.95 479.067 2393.58 482.442L2399.01 493.608C2400 495.664 2401.65 497.337 2403.68 498.376L2415.63 504.468C2418.92 506.148 2418.9 510.864 2415.58 512.508Z" stroke="#1400FF"/>
<path d="M2589.09 270.52L2577.07 276.48C2575.03 277.495 2573.37 279.151 2572.35 281.196L2566.8 292.301C2565.13 295.658 2560.32 295.611 2558.71 292.222L2553.46 281.172C2552.46 279.067 2550.79 277.353 2548.71 276.303L2536.7 270.239C2533.38 268.565 2533.41 263.82 2536.74 262.182L2548.82 256.251C2550.91 255.224 2552.6 253.53 2553.63 251.435L2559 240.444C2560.64 237.073 2565.45 237.079 2567.09 240.454L2572.51 251.62C2573.51 253.676 2575.15 255.35 2577.19 256.388L2589.13 262.48C2592.43 264.16 2592.4 268.876 2589.09 270.52Z" stroke="#1400FF"/>
<path d="M2947.96 388.54L2935.95 394.499C2933.9 395.515 2932.24 397.171 2931.22 399.215L2925.68 410.321C2924 413.677 2919.19 413.63 2917.58 410.241L2912.34 399.192C2911.34 397.086 2909.66 395.373 2907.58 394.322L2895.57 388.259C2892.25 386.584 2892.28 381.839 2895.61 380.202L2907.69 374.271C2909.79 373.244 2911.48 371.549 2912.5 369.454L2917.87 358.464C2919.52 355.093 2924.32 355.099 2925.96 358.473L2931.38 369.64C2932.38 371.695 2934.02 373.369 2936.06 374.407L2948 380.5C2951.3 382.18 2951.27 386.896 2947.96 388.54Z" stroke="#1400FF"/>
<path d="M1753.26 603.496L1771.44 594.35C1773.48 593.323 1775.13 591.658 1776.14 589.608L1784.61 572.4C1786.27 569.034 1791.08 569.055 1792.71 572.435L1800.94 589.527C1801.95 591.627 1803.63 593.331 1805.72 594.37L1824.03 603.488C1827.36 605.143 1827.36 609.889 1824.03 611.545L1805.72 620.662C1803.63 621.701 1801.95 623.405 1800.94 625.505L1792.71 642.598C1791.08 645.978 1786.27 645.998 1784.61 642.633L1776.14 625.424C1775.13 623.374 1773.48 621.709 1771.44 620.682L1753.26 611.536C1749.95 609.874 1749.95 605.158 1753.26 603.496Z" stroke="#1400FF"/>
<path d="M2780.26 999.528L2798.44 990.382C2800.48 989.355 2802.13 987.69 2803.14 985.64L2811.61 968.431C2813.27 965.066 2818.08 965.086 2819.71 968.466L2827.94 985.559C2828.95 987.659 2830.63 989.363 2832.72 990.402L2851.03 999.519C2854.36 1001.18 2854.36 1005.92 2851.03 1007.58L2832.72 1016.69C2830.63 1017.73 2828.95 1019.44 2827.94 1021.54L2819.71 1038.63C2818.08 1042.01 2813.27 1042.03 2811.61 1038.66L2803.14 1021.46C2802.13 1019.41 2800.48 1017.74 2798.44 1016.71L2780.26 1007.57C2776.95 1005.91 2776.95 1001.19 2780.26 999.528Z" stroke="#1400FF"/>
<path d="M2932.26 675.496L2950.44 666.35C2952.48 665.323 2954.13 663.658 2955.14 661.608L2963.61 644.4C2965.27 641.034 2970.08 641.055 2971.71 644.435L2979.94 661.527C2980.95 663.627 2982.63 665.331 2984.72 666.37L3003.03 675.488C3006.36 677.143 3006.36 681.889 3003.03 683.545L2984.72 692.662C2982.63 693.701 2980.95 695.405 2979.94 697.505L2971.71 714.598C2970.08 717.978 2965.27 717.998 2963.61 714.633L2955.14 697.424C2954.13 695.374 2952.48 693.709 2950.44 692.682L2932.26 683.536C2928.95 681.874 2928.95 677.158 2932.26 675.496Z" stroke="#1400FF"/>
<path d="M2365.95 852.528L2384.13 843.382C2386.17 842.355 2387.83 840.69 2388.83 838.64L2397.31 821.431C2398.97 818.066 2403.77 818.086 2405.4 821.466L2413.63 838.559C2414.64 840.659 2416.33 842.363 2418.41 843.402L2436.73 852.519C2440.05 854.175 2440.05 858.92 2436.73 860.576L2418.41 869.694C2416.33 870.733 2414.64 872.437 2413.63 874.537L2405.4 891.629C2403.77 895.009 2398.97 895.03 2397.31 891.664L2388.83 874.456C2387.83 872.406 2386.17 870.741 2384.13 869.714L2365.95 860.568C2362.65 858.906 2362.65 854.19 2365.95 852.528Z" stroke="#1400FF"/>
<path d="M2509.1 719.528L2527.29 710.382C2529.33 709.355 2530.98 707.69 2531.99 705.64L2540.46 688.431C2542.12 685.066 2546.92 685.086 2548.55 688.466L2556.79 705.559C2557.8 707.659 2559.48 709.363 2561.57 710.402L2579.88 719.519C2583.21 721.175 2583.21 725.92 2579.88 727.576L2561.57 736.694C2559.48 737.733 2557.8 739.437 2556.79 741.537L2548.55 758.629C2546.92 762.009 2542.12 762.03 2540.46 758.664L2531.99 741.456C2530.98 739.406 2529.33 737.741 2527.29 736.714L2509.1 727.568C2505.8 725.906 2505.8 721.19 2509.1 719.528Z" stroke="#1400FF"/>
<path d="M2152.26 677.496L2170.44 668.35C2172.48 667.323 2174.13 665.658 2175.14 663.608L2183.61 646.4C2185.27 643.034 2190.08 643.055 2191.71 646.435L2199.94 663.527C2200.95 665.627 2202.63 667.331 2204.72 668.37L2223.03 677.488C2226.36 679.143 2226.36 683.889 2223.03 685.545L2204.72 694.662C2202.63 695.701 2200.95 697.405 2199.94 699.505L2191.71 716.598C2190.08 719.978 2185.27 719.998 2183.61 716.633L2175.14 699.424C2174.13 697.374 2172.48 695.709 2170.44 694.682L2152.26 685.536C2148.95 683.874 2148.95 679.158 2152.26 677.496Z" stroke="#1400FF"/>
<path d="M1941.95 872.528L1960.13 863.382C1962.17 862.355 1963.83 860.69 1964.83 858.64L1973.31 841.431C1974.97 838.066 1979.77 838.086 1981.4 841.466L1989.63 858.559C1990.64 860.659 1992.33 862.363 1994.41 863.402L2012.73 872.519C2016.05 874.175 2016.05 878.92 2012.73 880.576L1994.41 889.694C1992.33 890.733 1990.64 892.437 1989.63 894.537L1981.4 911.629C1979.77 915.009 1974.97 915.03 1973.31 911.664L1964.83 894.456C1963.83 892.406 1962.17 890.741 1960.13 889.714L1941.95 880.568C1938.65 878.906 1938.65 874.19 1941.95 872.528Z" stroke="#1400FF"/>
<path d="M1612.1 800.528L1630.29 791.382C1632.33 790.355 1633.98 788.69 1634.99 786.64L1643.46 769.431C1645.12 766.066 1649.92 766.086 1651.55 769.466L1659.79 786.559C1660.8 788.659 1662.48 790.363 1664.57 791.402L1682.88 800.519C1686.21 802.175 1686.21 806.92 1682.88 808.576L1664.57 817.694C1662.48 818.733 1660.8 820.437 1659.79 822.537L1651.55 839.629C1649.92 843.009 1645.12 843.03 1643.46 839.664L1634.99 822.456C1633.98 820.406 1632.33 818.741 1630.29 817.714L1612.1 808.568C1608.8 806.906 1608.8 802.19 1612.1 800.528Z" stroke="#1400FF"/>
<path d="M2829.53 1176.61L2798.86 1191.83C2796.81 1192.85 2795.15 1194.5 2794.13 1196.55L2779.52 1225.82C2777.84 1229.18 2773.04 1229.13 2771.43 1225.74L2757.5 1196.42C2756.5 1194.32 2754.83 1192.61 2752.75 1191.55L2721.99 1176.03C2718.67 1174.35 2718.7 1169.61 2722.03 1167.97L2752.96 1152.78C2755.06 1151.76 2756.75 1150.06 2757.77 1147.97L2772.02 1118.81C2773.66 1115.44 2778.47 1115.44 2780.11 1118.82L2794.4 1148.25C2795.4 1150.31 2797.04 1151.98 2799.07 1153.02L2829.58 1168.57C2832.87 1170.25 2832.84 1174.97 2829.53 1176.61Z" stroke="#1400FF"/>
<path d="M1806.56 865.883L1775.89 881.1C1773.85 882.116 1772.19 883.772 1771.17 885.816L1756.55 915.089C1754.87 918.446 1750.07 918.398 1748.46 915.009L1734.54 885.695C1733.54 883.589 1731.86 881.876 1729.78 880.825L1699.02 865.298C1695.7 863.624 1695.73 858.878 1699.06 857.241L1730 842.054C1732.09 841.027 1733.78 839.332 1734.8 837.238L1749.05 808.078C1750.7 804.708 1755.5 804.713 1757.14 808.088L1771.43 837.521C1772.43 839.576 1774.07 841.25 1776.11 842.288L1806.61 857.843C1809.9 859.523 1809.88 864.24 1806.56 865.883Z" stroke="#1400FF"/>
<path d="M1650.74 1118.1L1620.07 1133.32C1618.02 1134.33 1616.36 1135.99 1615.34 1138.03L1600.72 1167.31C1599.05 1170.66 1594.24 1170.62 1592.63 1167.23L1578.71 1137.91C1577.71 1135.81 1576.04 1134.09 1573.96 1133.04L1543.19 1117.52C1539.88 1115.84 1539.9 1111.1 1543.24 1109.46L1574.17 1094.27C1576.26 1093.24 1577.95 1091.55 1578.98 1089.46L1593.22 1060.3C1594.87 1056.93 1599.68 1056.93 1601.31 1060.31L1615.6 1089.74C1616.6 1091.79 1618.24 1093.47 1620.28 1094.51L1650.78 1110.06C1654.08 1111.74 1654.05 1116.46 1650.74 1118.1Z" stroke="#1400FF"/>
<path d="M2170.74 1008.25L2140.07 1023.47C2138.02 1024.48 2136.36 1026.14 2135.34 1028.18L2120.72 1057.45C2119.05 1060.81 2114.24 1060.76 2112.63 1057.38L2098.71 1028.06C2097.71 1025.95 2096.04 1024.24 2093.96 1023.19L2063.19 1007.66C2059.88 1005.99 2059.9 1001.24 2063.24 999.607L2094.17 984.42C2096.26 983.392 2097.95 981.698 2098.98 979.603L2113.22 950.444C2114.87 947.073 2119.68 947.079 2121.31 950.454L2135.6 979.887C2136.6 981.942 2138.24 983.616 2140.28 984.654L2170.78 1000.21C2174.08 1001.89 2174.05 1006.61 2170.74 1008.25Z" stroke="#1400FF"/>
<path d="M2070.93 1084.42L2040.26 1099.64C2038.21 1100.65 2036.55 1102.31 2035.53 1104.35L2020.92 1133.63C2019.24 1136.98 2014.43 1136.94 2012.82 1133.55L1998.9 1104.23C1997.9 1102.13 1996.23 1100.41 1994.15 1099.36L1963.38 1083.84C1960.07 1082.16 1960.09 1077.42 1963.43 1075.78L1994.36 1060.59C1996.46 1059.57 1998.15 1057.87 1999.17 1055.78L2013.41 1026.62C2015.06 1023.25 2019.87 1023.25 2021.51 1026.63L2035.8 1056.06C2036.8 1058.11 2038.44 1059.79 2040.47 1060.83L2070.97 1076.38C2074.27 1078.06 2074.24 1082.78 2070.93 1084.42Z" stroke="#1400FF"/>
<path d="M2430.74 1120.41L2400.06 1135.63C2398.02 1136.64 2396.36 1138.3 2395.34 1140.34L2380.72 1169.62C2379.05 1172.97 2374.24 1172.92 2372.63 1169.54L2358.71 1140.22C2357.71 1138.12 2356.04 1136.4 2353.96 1135.35L2323.19 1119.82C2319.87 1118.15 2319.9 1113.4 2323.24 1111.77L2354.17 1096.58C2356.26 1095.55 2357.95 1093.86 2358.98 1091.76L2373.22 1062.6C2374.87 1059.23 2379.67 1059.24 2381.31 1062.61L2395.6 1092.05C2396.6 1094.1 2398.24 1095.78 2400.28 1096.81L2430.78 1112.37C2434.07 1114.05 2434.05 1118.77 2430.74 1120.41Z" stroke="#1400FF"/>
<path d="M2622.6 862.39L2591.92 877.607C2589.88 878.623 2588.22 880.278 2587.2 882.323L2572.58 911.596C2570.91 914.952 2566.1 914.905 2564.49 911.516L2550.57 882.202C2549.57 880.096 2547.9 878.383 2545.81 877.332L2515.05 861.805C2511.73 860.13 2511.76 855.385 2515.09 853.748L2546.03 838.561C2548.12 837.534 2549.81 835.839 2550.84 833.744L2565.08 804.585C2566.73 801.214 2571.53 801.22 2573.17 804.595L2587.46 834.028C2588.46 836.083 2590.1 837.757 2592.14 838.795L2622.64 854.35C2625.93 856.03 2625.91 860.746 2622.6 862.39Z" stroke="#1400FF"/>
<path d="M3002.74 1076.25L2972.07 1091.47C2970.02 1092.48 2968.36 1094.14 2967.34 1096.18L2952.72 1125.45C2951.05 1128.81 2946.24 1128.76 2944.63 1125.38L2930.71 1096.06C2929.71 1093.95 2928.04 1092.24 2925.96 1091.19L2895.19 1075.66C2891.88 1073.99 2891.9 1069.24 2895.24 1067.61L2926.17 1052.42C2928.26 1051.39 2929.95 1049.7 2930.98 1047.6L2945.22 1018.44C2946.87 1015.07 2951.68 1015.08 2953.31 1018.45L2967.6 1047.89C2968.6 1049.94 2970.24 1051.62 2972.28 1052.65L3002.78 1068.21C3006.08 1069.89 3006.05 1074.61 3002.74 1076.25Z" stroke="#1400FF"/>
<path d="M2864.76 200.658L2864.57 200.565C2862.62 199.581 2861.03 197.965 2860.06 196.003C2858.5 192.824 2853.94 192.806 2852.42 195.973C2851.46 197.967 2849.86 199.584 2847.88 200.57L2847.72 200.651C2844.39 202.306 2844.39 207.049 2847.72 208.704L2847.88 208.785C2849.86 209.771 2851.46 211.389 2852.42 213.382C2853.94 216.549 2858.5 216.532 2860.06 213.353C2861.03 211.39 2862.62 209.775 2864.57 208.791L2864.76 208.698C2868.06 207.036 2868.06 202.32 2864.76 200.658Z" stroke="#D100D1" stroke-opacity="0.7"/>
<path d="M1831.76 574.626L1831.57 574.533C1829.62 573.549 1828.03 571.933 1827.06 569.971C1825.5 566.792 1820.94 566.774 1819.42 569.942C1818.46 571.935 1816.86 573.553 1814.88 574.539L1814.72 574.619C1811.39 576.274 1811.39 581.018 1814.72 582.673L1814.88 582.753C1816.86 583.739 1818.46 585.357 1819.42 587.35C1820.94 590.518 1825.5 590.5 1827.06 587.321C1828.03 585.359 1829.62 583.743 1831.57 582.759L1831.76 582.666C1835.06 581.004 1835.06 576.288 1831.76 574.626Z" stroke="#D100D1" stroke-opacity="0.7"/>
<path d="M1686.25 286.658L1686.07 286.565C1684.11 285.581 1682.52 283.965 1681.55 282.003C1679.99 278.824 1675.44 278.806 1673.91 281.973C1672.95 283.967 1671.35 285.584 1669.37 286.57L1669.21 286.651C1665.89 288.306 1665.89 293.049 1669.21 294.704L1669.37 294.785C1671.35 295.771 1672.95 297.389 1673.91 299.382C1675.44 302.549 1679.99 302.532 1681.55 299.353C1682.52 297.39 1684.11 295.775 1686.07 294.791L1686.25 294.698C1689.55 293.036 1689.55 288.32 1686.25 286.658Z" stroke="#D100D1" stroke-opacity="0.7"/>
<path d="M2181.76 573.658L2181.57 573.565C2179.62 572.581 2178.03 570.965 2177.06 569.003C2175.5 565.824 2170.94 565.806 2169.42 568.973C2168.46 570.967 2166.86 572.584 2164.88 573.57L2164.72 573.651C2161.39 575.306 2161.39 580.049 2164.72 581.704L2164.88 581.785C2166.86 582.771 2168.46 584.389 2169.42 586.382C2170.94 589.549 2175.5 589.532 2177.06 586.353C2178.03 584.39 2179.62 582.775 2181.57 581.791L2181.76 581.698C2185.06 580.036 2185.06 575.32 2181.76 573.658Z" stroke="#D100D1" stroke-opacity="0.7"/>
<path d="M2105.76 342.658L2105.57 342.565C2103.62 341.581 2102.03 339.965 2101.06 338.003C2099.5 334.824 2094.94 334.806 2093.42 337.973C2092.46 339.967 2090.86 341.584 2088.88 342.57L2088.72 342.651C2085.39 344.306 2085.39 349.049 2088.72 350.704L2088.88 350.785C2090.86 351.771 2092.46 353.389 2093.42 355.382C2094.94 358.549 2099.5 358.532 2101.06 355.353C2102.03 353.39 2103.62 351.775 2105.57 350.791L2105.76 350.698C2109.06 349.036 2109.06 344.32 2105.76 342.658Z" stroke="#D100D1" stroke-opacity="0.7"/>
<path d="M2466.25 288.658L2466.07 288.565C2464.11 287.581 2462.52 285.965 2461.55 284.003C2459.99 280.824 2455.44 280.806 2453.91 283.973C2452.95 285.967 2451.35 287.584 2449.37 288.57L2449.21 288.651C2445.89 290.306 2445.89 295.049 2449.21 296.704L2449.37 296.785C2451.35 297.771 2452.95 299.389 2453.91 301.382C2455.44 304.549 2459.99 304.532 2461.55 301.353C2462.52 299.39 2464.11 297.775 2466.07 296.791L2466.25 296.698C2469.55 295.036 2469.55 290.32 2466.25 288.658Z" stroke="#D100D1" stroke-opacity="0.7"/>
<path d="M2647.76 582.626L2647.57 582.533C2645.62 581.549 2644.03 579.933 2643.06 577.971C2641.5 574.792 2636.94 574.774 2635.42 577.942C2634.46 579.935 2632.86 581.553 2630.88 582.539L2630.72 582.619C2627.39 584.274 2627.39 589.018 2630.72 590.673L2630.88 590.753C2632.86 591.739 2634.46 593.357 2635.42 595.35C2636.94 598.518 2641.5 598.5 2643.06 595.321C2644.03 593.359 2645.62 591.743 2647.57 590.759L2647.76 590.666C2651.06 589.004 2651.06 584.288 2647.76 582.626Z" stroke="#D100D1" stroke-opacity="0.7"/>
<path d="M3002.76 360.658L3002.57 360.565C3000.62 359.581 2999.03 357.965 2998.06 356.003C2996.5 352.824 2991.94 352.806 2990.42 355.973C2989.46 357.967 2987.86 359.584 2985.88 360.57L2985.72 360.651C2982.39 362.306 2982.39 367.049 2985.72 368.704L2985.88 368.785C2987.86 369.771 2989.46 371.389 2990.42 373.382C2991.94 376.549 2996.5 376.532 2998.06 373.353C2999.03 371.39 3000.62 369.775 3002.57 368.791L3002.76 368.698C3006.06 367.036 3006.06 362.32 3002.76 360.658Z" stroke="#D100D1" stroke-opacity="0.7"/>
<path d="M1785.33 842.743L1797.35 848.703C1799.39 849.718 1801.05 851.374 1802.07 853.418L1807.62 864.524C1809.29 867.88 1814.1 867.833 1815.71 864.444L1820.96 853.395C1821.96 851.289 1823.63 849.576 1825.71 848.526L1837.72 842.462C1841.04 840.788 1841.01 836.042 1837.68 834.405L1825.6 828.474C1823.51 827.447 1821.81 825.752 1820.79 823.658L1815.42 812.667C1813.78 809.296 1808.97 809.302 1807.33 812.677L1801.91 823.843C1800.91 825.898 1799.27 827.572 1797.23 828.61L1785.29 834.703C1781.99 836.383 1782.02 841.099 1785.33 842.743Z" stroke="#D100D1" stroke-opacity="0.7"/>
<path d="M2819.3 482.981L2831.31 488.941C2833.36 489.957 2835.02 491.613 2836.04 493.657L2841.58 504.763C2843.26 508.119 2848.07 508.072 2849.68 504.683L2854.92 493.634C2855.92 491.528 2857.6 489.815 2859.68 488.764L2871.69 482.7C2875.01 481.026 2874.98 476.281 2871.65 474.644L2859.57 468.713C2857.47 467.685 2855.78 465.991 2854.76 463.896L2849.39 452.906C2847.74 449.535 2842.94 449.54 2841.3 452.915L2835.88 464.082C2834.88 466.137 2833.24 467.811 2831.2 468.849L2819.25 474.941C2815.96 476.622 2815.99 481.338 2819.3 482.981Z" stroke="#D100D1" stroke-opacity="0.7"/>
<path d="M2964.13 802.231L2976.14 808.191C2978.19 809.207 2979.85 810.863 2980.87 812.907L2986.41 824.013C2988.09 827.369 2992.89 827.322 2994.5 823.933L2999.75 812.884C3000.75 810.778 3002.42 809.065 3004.5 808.014L3016.52 801.95C3019.83 800.276 3019.81 795.531 3016.47 793.894L3004.39 787.963C3002.3 786.935 3000.61 785.241 2999.59 783.146L2994.22 772.156C2992.57 768.785 2987.76 768.79 2986.13 772.165L2980.7 783.332C2979.71 785.387 2978.06 787.061 2976.03 788.099L2964.08 794.191C2960.79 795.872 2960.81 800.588 2964.13 802.231Z" stroke="#D100D1" stroke-opacity="0.7"/>
<path d="M2469.7 606.913L2481.71 612.873C2483.76 613.889 2485.42 615.544 2486.44 617.589L2491.98 628.694C2493.66 632.051 2498.46 632.004 2500.07 628.615L2505.32 617.565C2506.32 615.46 2507.99 613.746 2510.07 612.696L2522.09 606.632C2525.41 604.958 2525.38 600.213 2522.04 598.575L2509.96 592.644C2507.87 591.617 2506.18 589.923 2505.16 587.828L2499.79 576.837C2498.14 573.466 2493.33 573.472 2491.7 576.847L2486.27 588.013C2485.28 590.069 2483.63 591.743 2481.6 592.781L2469.65 598.873C2466.36 600.553 2466.38 605.269 2469.7 606.913Z" stroke="#D100D1" stroke-opacity="0.7"/>
<path d="M2537.93 723.552L2549.95 729.512C2551.99 730.527 2553.65 732.183 2554.67 734.227L2560.22 745.333C2561.89 748.69 2566.7 748.642 2568.31 745.253L2573.56 734.204C2574.56 732.098 2576.23 730.385 2578.31 729.335L2590.33 723.271C2593.64 721.597 2593.62 716.851 2590.28 715.214L2578.2 709.283C2576.11 708.256 2574.42 706.561 2573.39 704.467L2568.02 693.476C2566.38 690.105 2561.57 690.111 2559.93 693.486L2554.51 704.652C2553.51 706.708 2551.87 708.381 2549.84 709.42L2537.89 715.512C2534.6 717.192 2534.62 721.908 2537.93 723.552Z" stroke="#D100D1" stroke-opacity="0.7"/>
<path d="M2184.13 804.54L2196.14 810.499C2198.19 811.515 2199.85 813.171 2200.87 815.215L2206.41 826.321C2208.09 829.677 2212.89 829.63 2214.5 826.241L2219.75 815.192C2220.75 813.086 2222.42 811.373 2224.5 810.322L2236.52 804.259C2239.84 802.584 2239.81 797.839 2236.47 796.202L2224.39 790.271C2222.3 789.244 2220.61 787.549 2219.59 785.454L2214.22 774.464C2212.57 771.093 2207.76 771.099 2206.13 774.473L2200.7 785.64C2199.71 787.695 2198.06 789.369 2196.03 790.407L2184.08 796.5C2180.79 798.18 2180.81 802.896 2184.13 804.54Z" stroke="#D100D1" stroke-opacity="0.7"/>
<path d="M2003.27 479.488L2015.28 485.448C2017.33 486.464 2018.99 488.119 2020.01 490.164L2025.55 501.27C2027.23 504.626 2032.03 504.579 2033.64 501.19L2038.89 490.141C2039.89 488.035 2041.56 486.322 2043.64 485.271L2055.66 479.207C2058.98 477.533 2058.95 472.788 2055.61 471.151L2043.53 465.22C2041.44 464.192 2039.75 462.498 2038.73 460.403L2033.36 449.412C2031.71 446.042 2026.9 446.047 2025.27 449.422L2019.84 460.588C2018.85 462.644 2017.2 464.318 2015.17 465.356L2003.22 471.448C1999.93 473.128 1999.95 477.845 2003.27 479.488Z" stroke="#D100D1" stroke-opacity="0.7"/>
<path d="M1637.9 684.508L1649.92 690.468C1651.96 691.483 1653.62 693.139 1654.64 695.183L1660.19 706.289C1661.86 709.646 1666.67 709.598 1668.28 706.209L1673.53 695.16C1674.53 693.054 1676.2 691.341 1678.28 690.291L1690.29 684.227C1693.61 682.553 1693.58 677.807 1690.25 676.17L1678.17 670.239C1676.08 669.212 1674.39 667.517 1673.36 665.423L1667.99 654.432C1666.35 651.061 1661.54 651.067 1659.9 654.442L1654.48 665.608C1653.48 667.664 1651.84 669.337 1649.8 670.376L1637.86 676.468C1634.56 678.148 1634.59 682.864 1637.9 684.508Z" stroke="#D100D1" stroke-opacity="0.7"/>
<path d="M2846.45 844.528L2828.27 835.382C2826.23 834.355 2824.58 832.69 2823.57 830.64L2815.1 813.431C2813.44 810.066 2808.63 810.086 2807 813.466L2798.77 830.559C2797.76 832.659 2796.08 834.363 2793.99 835.402L2775.68 844.519C2772.35 846.175 2772.35 850.92 2775.68 852.576L2793.99 861.694C2796.08 862.733 2797.76 864.437 2798.77 866.537L2807 883.629C2808.63 887.009 2813.44 887.03 2815.1 883.664L2823.57 866.456C2824.58 864.406 2826.23 862.741 2828.27 861.714L2846.45 852.568C2849.76 850.906 2849.76 846.19 2846.45 844.528Z" stroke="#D100D1" stroke-opacity="0.7"/>
<path d="M1794.61 1149.53L1776.42 1140.38C1774.38 1139.35 1772.73 1137.69 1771.72 1135.64L1763.25 1118.43C1761.59 1115.07 1756.79 1115.09 1755.16 1118.47L1746.92 1135.56C1745.91 1137.66 1744.23 1139.36 1742.14 1140.4L1723.83 1149.52C1720.5 1151.18 1720.5 1155.92 1723.83 1157.58L1742.14 1166.69C1744.23 1167.73 1745.91 1169.44 1746.92 1171.54L1755.16 1188.63C1756.79 1192.01 1761.59 1192.03 1763.25 1188.66L1771.72 1171.46C1772.73 1169.41 1774.38 1167.74 1776.42 1166.71L1794.61 1157.57C1797.91 1155.91 1797.91 1151.19 1794.61 1149.53Z" stroke="#D100D1" stroke-opacity="0.7"/>
<path d="M1653.61 971.528L1635.42 962.382C1633.38 961.355 1631.73 959.69 1630.72 957.64L1622.25 940.431C1620.59 937.066 1615.79 937.086 1614.16 940.466L1605.92 957.559C1604.91 959.659 1603.23 961.363 1601.14 962.402L1582.83 971.519C1579.5 973.175 1579.5 977.92 1582.83 979.576L1601.14 988.694C1603.23 989.733 1604.91 991.437 1605.92 993.537L1614.16 1010.63C1615.79 1014.01 1620.59 1014.03 1622.25 1010.66L1630.72 993.456C1631.73 991.406 1633.38 989.741 1635.42 988.714L1653.61 979.568C1656.91 977.906 1656.91 973.19 1653.61 971.528Z" stroke="#D100D1" stroke-opacity="0.7"/>
<path d="M2222.76 1077.53L2204.58 1068.38C2202.54 1067.35 2200.88 1065.69 2199.88 1063.64L2191.4 1046.43C2189.74 1043.07 2184.94 1043.09 2183.31 1046.47L2175.08 1063.56C2174.07 1065.66 2172.38 1067.36 2170.3 1068.4L2151.98 1077.52C2148.66 1079.18 2148.66 1083.92 2151.98 1085.58L2170.3 1094.69C2172.38 1095.73 2174.07 1097.44 2175.08 1099.54L2183.31 1116.63C2184.94 1120.01 2189.74 1120.03 2191.4 1116.66L2199.88 1099.46C2200.88 1097.41 2202.54 1095.74 2204.58 1094.71L2222.76 1085.57C2226.06 1083.91 2226.06 1079.19 2222.76 1077.53Z" stroke="#D100D1" stroke-opacity="0.7"/>
<path d="M2073.61 989.528L2055.42 980.382C2053.38 979.355 2051.73 977.69 2050.72 975.64L2042.25 958.431C2040.59 955.066 2035.79 955.086 2034.16 958.466L2025.92 975.559C2024.91 977.659 2023.23 979.363 2021.14 980.402L2002.83 989.519C1999.5 991.175 1999.5 995.92 2002.83 997.576L2021.14 1006.69C2023.23 1007.73 2024.91 1009.44 2025.92 1011.54L2034.16 1028.63C2035.79 1032.01 2040.59 1032.03 2042.25 1028.66L2050.72 1011.46C2051.73 1009.41 2053.38 1007.74 2055.42 1006.71L2073.61 997.568C2076.91 995.906 2076.91 991.19 2073.61 989.528Z" stroke="#D100D1" stroke-opacity="0.7"/>
<path d="M2447.45 880.528L2429.27 871.382C2427.23 870.355 2425.58 868.69 2424.57 866.64L2416.1 849.431C2414.44 846.066 2409.63 846.086 2408 849.466L2399.77 866.559C2398.76 868.659 2397.08 870.363 2394.99 871.402L2376.68 880.519C2373.35 882.175 2373.35 886.92 2376.68 888.576L2394.99 897.694C2397.08 898.733 2398.76 900.437 2399.77 902.537L2408 919.629C2409.63 923.009 2414.44 923.03 2416.1 919.664L2424.57 902.456C2425.58 900.406 2427.23 898.741 2429.27 897.714L2447.45 888.568C2450.76 886.906 2450.76 882.19 2447.45 880.528Z" stroke="#D100D1" stroke-opacity="0.7"/>
<path d="M2646.76 1115.53L2628.58 1106.38C2626.54 1105.35 2624.88 1103.69 2623.88 1101.64L2615.4 1084.43C2613.74 1081.07 2608.94 1081.09 2607.31 1084.47L2599.08 1101.56C2598.07 1103.66 2596.38 1105.36 2594.3 1106.4L2575.98 1115.52C2572.66 1117.18 2572.66 1121.92 2575.98 1123.58L2594.3 1132.69C2596.38 1133.73 2598.07 1135.44 2599.08 1137.54L2607.31 1154.63C2608.94 1158.01 2613.74 1158.03 2615.4 1154.66L2623.88 1137.46C2624.88 1135.41 2626.54 1133.74 2628.58 1132.71L2646.76 1123.57C2650.06 1121.91 2650.06 1117.19 2646.76 1115.53Z" stroke="#D100D1" stroke-opacity="0.7"/>
<path d="M2976.61 1025.53L2958.42 1016.38C2956.38 1015.35 2954.73 1013.69 2953.72 1011.64L2945.25 994.431C2943.59 991.066 2938.79 991.086 2937.16 994.466L2928.92 1011.56C2927.91 1013.66 2926.23 1015.36 2924.14 1016.4L2905.83 1025.52C2902.5 1027.18 2902.5 1031.92 2905.83 1033.58L2924.14 1042.69C2926.23 1043.73 2927.91 1045.44 2928.92 1047.54L2937.16 1064.63C2938.79 1068.01 2943.59 1068.03 2945.25 1064.66L2953.72 1047.46C2954.73 1045.41 2956.38 1043.74 2958.42 1042.71L2976.61 1033.57C2979.91 1031.91 2979.91 1027.19 2976.61 1025.53Z" stroke="#D100D1" stroke-opacity="0.7"/>
<path d="M2782.15 1090.88L2812.82 1106.1C2814.86 1107.12 2816.52 1108.77 2817.54 1110.82L2832.16 1140.09C2833.84 1143.45 2838.64 1143.4 2840.25 1140.01L2854.17 1110.69C2855.17 1108.59 2856.84 1106.88 2858.93 1105.83L2889.69 1090.3C2893.01 1088.62 2892.98 1083.88 2889.65 1082.24L2858.71 1067.05C2856.62 1066.03 2854.93 1064.33 2853.9 1062.24L2839.66 1033.08C2838.01 1029.71 2833.21 1029.71 2831.57 1033.09L2817.28 1062.52C2816.28 1064.58 2814.64 1066.25 2812.6 1067.29L2782.1 1082.84C2778.81 1084.52 2778.83 1089.24 2782.15 1090.88Z" stroke="#D100D1" stroke-opacity="0.7"/>
<path d="M2924.13 1263.1L2954.8 1278.32C2956.84 1279.33 2958.5 1280.99 2959.53 1283.03L2974.14 1312.31C2975.82 1315.66 2980.62 1315.62 2982.23 1312.23L2996.15 1282.91C2997.15 1280.81 2998.83 1279.09 3000.91 1278.04L3031.67 1262.52C3034.99 1260.84 3034.96 1256.1 3031.63 1254.46L3000.69 1239.27C2998.6 1238.24 2996.91 1236.55 2995.89 1234.46L2981.64 1205.3C2979.99 1201.93 2975.19 1201.93 2973.55 1205.31L2959.26 1234.74C2958.26 1236.79 2956.62 1238.47 2954.58 1239.51L2924.08 1255.06C2920.79 1256.74 2920.81 1261.46 2924.13 1263.1Z" stroke="#D100D1" stroke-opacity="0.7"/>
<path d="M2404.13 1176.25L2434.8 1191.47C2436.84 1192.48 2438.5 1194.14 2439.53 1196.18L2454.14 1225.45C2455.82 1228.81 2460.62 1228.76 2462.23 1225.38L2476.15 1196.06C2477.15 1193.95 2478.83 1192.24 2480.91 1191.19L2511.67 1175.66C2514.99 1173.99 2514.96 1169.24 2511.63 1167.61L2480.69 1152.42C2478.6 1151.39 2476.91 1149.7 2475.89 1147.6L2461.64 1118.44C2459.99 1115.07 2455.19 1115.08 2453.55 1118.45L2439.26 1147.89C2438.26 1149.94 2436.62 1151.62 2434.58 1152.65L2404.08 1168.21C2400.79 1169.89 2400.81 1174.61 2404.13 1176.25Z" stroke="#D100D1" stroke-opacity="0.7"/>
<path d="M2503.93 1229.42L2534.61 1244.64C2536.65 1245.65 2538.31 1247.31 2539.33 1249.35L2553.95 1278.63C2555.62 1281.98 2560.43 1281.94 2562.04 1278.55L2575.96 1249.23C2576.96 1247.13 2578.63 1245.41 2580.71 1244.36L2611.48 1228.84C2614.8 1227.16 2614.77 1222.42 2611.43 1220.78L2580.5 1205.59C2578.41 1204.57 2576.72 1202.87 2575.69 1200.78L2561.45 1171.62C2559.8 1168.25 2555 1168.25 2553.36 1171.63L2539.07 1201.06C2538.07 1203.11 2536.43 1204.79 2534.39 1205.83L2503.89 1221.38C2500.6 1223.06 2500.62 1227.78 2503.93 1229.42Z" stroke="#D100D1" stroke-opacity="0.7"/>
<path d="M2144.13 1265.41L2174.8 1280.63C2176.85 1281.64 2178.51 1283.3 2179.53 1285.34L2194.14 1314.62C2195.82 1317.97 2200.62 1317.92 2202.23 1314.54L2216.15 1285.22C2217.15 1283.12 2218.83 1281.4 2220.91 1280.35L2251.67 1264.82C2254.99 1263.15 2254.96 1258.4 2251.63 1256.77L2220.69 1241.58C2218.6 1240.55 2216.91 1238.86 2215.89 1236.76L2201.64 1207.6C2200 1204.23 2195.19 1204.24 2193.55 1207.61L2179.26 1237.05C2178.26 1239.1 2176.62 1240.78 2174.58 1241.81L2144.08 1257.37C2140.79 1259.05 2140.81 1263.77 2144.13 1265.41Z" stroke="#D100D1" stroke-opacity="0.7"/>
<path d="M1572.13 1221.25L1602.8 1236.47C1604.84 1237.48 1606.5 1239.14 1607.53 1241.18L1622.14 1270.45C1623.82 1273.81 1628.62 1273.76 1630.23 1270.38L1644.15 1241.06C1645.15 1238.95 1646.83 1237.24 1648.91 1236.19L1679.67 1220.66C1682.99 1218.99 1682.96 1214.24 1679.63 1212.61L1648.69 1197.42C1646.6 1196.39 1644.91 1194.7 1643.89 1192.6L1629.64 1163.44C1627.99 1160.07 1623.19 1160.08 1621.55 1163.45L1607.26 1192.89C1606.26 1194.94 1604.62 1196.62 1602.58 1197.65L1572.08 1213.21C1568.79 1214.89 1568.81 1219.61 1572.13 1221.25Z" stroke="#D100D1" stroke-opacity="0.7"/>
</g>
<defs>
<clipPath id="clip0_81_222">
<rect width="3041" height="1217" fill="white"/>
</clipPath>
</defs>
</svg>
