<svg width="265" height="167" viewBox="0 0 265 167" fill="none" xmlns="http://www.w3.org/2000/svg">
<rect x="6.77051" width="51.0027" height="51.0027" fill="#1400FF"/>
<rect x="74.6987" width="51.0027" height="51.0027" fill="#6A00F4"/>
<rect x="142.627" width="51.0027" height="51.0027" fill="#D100D1"/>
<rect x="210.556" width="51.0027" height="51.0027" fill="#F20089"/>
<path d="M6.1131 146.22L32.7006 100.169L59.2881 146.22H6.1131Z" stroke="#00FFFF" stroke-width="2"/>
<circle cx="32.723" cy="131.133" r="4.51351" stroke="#00FFFF" stroke-width="2"/>
<path d="M140.347 112.209L168.563 91.5105L196.778 112.209L185.997 145.713H151.128L140.347 112.209Z" stroke="#00FFFF" stroke-width="2"/>
<circle cx="168.083" cy="121.865" r="4.51351" stroke="#00FFFF" stroke-width="2"/>
<rect x="77.7295" y="96.9121" width="49.0009" height="49.0009" stroke="#00FFFF" stroke-width="2"/>
<circle cx="102.566" cy="120.978" r="4.51351" stroke="#00FFFF" stroke-width="2"/>
<path d="M211.392 106.673L235.594 92.5564L259.795 106.673V134.925L235.594 149.042L211.392 134.925V106.673Z" stroke="#00FFFF" stroke-width="2"/>
<circle cx="235.428" cy="120.665" r="4.51351" stroke="#00FFFF" stroke-width="2"/>
<path d="M96.2987 62.202C96.5414 61.7773 96.8967 61.4307 97.3647 61.162C97.8327 60.8933 98.3657 60.759 98.9637 60.759C99.6051 60.759 100.181 60.9107 100.693 61.214C101.204 61.5173 101.607 61.9463 101.902 62.501C102.196 63.047 102.344 63.684 102.344 64.412C102.344 65.1313 102.196 65.7727 101.902 66.336C101.607 66.8993 101.2 67.337 100.68 67.649C100.168 67.961 99.5964 68.117 98.9637 68.117C98.3484 68.117 97.8067 67.9827 97.3387 67.714C96.8794 67.4453 96.5327 67.103 96.2987 66.687V68H95.1157V58.38H96.2987V62.202ZM101.135 64.412C101.135 63.8747 101.026 63.4067 100.81 63.008C100.593 62.6093 100.298 62.306 99.9257 62.098C99.5617 61.89 99.1587 61.786 98.7167 61.786C98.2834 61.786 97.8804 61.8943 97.5077 62.111C97.1437 62.319 96.8491 62.6267 96.6237 63.034C96.4071 63.4327 96.2987 63.8963 96.2987 64.425C96.2987 64.9623 96.4071 65.4347 96.6237 65.842C96.8491 66.2407 97.1437 66.5483 97.5077 66.765C97.8804 66.973 98.2834 67.077 98.7167 67.077C99.1587 67.077 99.5617 66.973 99.9257 66.765C100.298 66.5483 100.593 66.2407 100.81 65.842C101.026 65.4347 101.135 64.958 101.135 64.412ZM103.459 64.412C103.459 63.684 103.606 63.047 103.901 62.501C104.196 61.9463 104.599 61.5173 105.11 61.214C105.63 60.9107 106.206 60.759 106.839 60.759C107.463 60.759 108.005 60.8933 108.464 61.162C108.923 61.4307 109.266 61.7687 109.491 62.176V60.876H110.687V68H109.491V66.674C109.257 67.09 108.906 67.4367 108.438 67.714C107.979 67.9827 107.441 68.117 106.826 68.117C106.193 68.117 105.621 67.961 105.11 67.649C104.599 67.337 104.196 66.8993 103.901 66.336C103.606 65.7727 103.459 65.1313 103.459 64.412ZM109.491 64.425C109.491 63.8877 109.383 63.4197 109.166 63.021C108.949 62.6223 108.655 62.319 108.282 62.111C107.918 61.8943 107.515 61.786 107.073 61.786C106.631 61.786 106.228 61.89 105.864 62.098C105.5 62.306 105.21 62.6093 104.993 63.008C104.776 63.4067 104.668 63.8747 104.668 64.412C104.668 64.958 104.776 65.4347 104.993 65.842C105.21 66.2407 105.5 66.5483 105.864 66.765C106.228 66.973 106.631 67.077 107.073 67.077C107.515 67.077 107.918 66.973 108.282 66.765C108.655 66.5483 108.949 66.2407 109.166 65.842C109.383 65.4347 109.491 64.9623 109.491 64.425ZM113.297 59.719C113.072 59.719 112.881 59.641 112.725 59.485C112.569 59.329 112.491 59.1383 112.491 58.913C112.491 58.6877 112.569 58.497 112.725 58.341C112.881 58.185 113.072 58.107 113.297 58.107C113.514 58.107 113.696 58.185 113.843 58.341C113.999 58.497 114.077 58.6877 114.077 58.913C114.077 59.1383 113.999 59.329 113.843 59.485C113.696 59.641 113.514 59.719 113.297 59.719ZM113.869 60.876V68H112.686V60.876H113.869ZM117.068 58.38V68H115.885V58.38H117.068ZM118.642 64.412C118.642 63.684 118.79 63.047 119.084 62.501C119.379 61.9463 119.782 61.5173 120.293 61.214C120.813 60.9107 121.39 60.759 122.022 60.759C122.646 60.759 123.188 60.8933 123.647 61.162C124.107 61.4307 124.449 61.7687 124.674 62.176V60.876H125.87V68H124.674V66.674C124.44 67.09 124.089 67.4367 123.621 67.714C123.162 67.9827 122.625 68.117 122.009 68.117C121.377 68.117 120.805 67.961 120.293 67.649C119.782 67.337 119.379 66.8993 119.084 66.336C118.79 65.7727 118.642 65.1313 118.642 64.412ZM124.674 64.425C124.674 63.8877 124.566 63.4197 124.349 63.021C124.133 62.6223 123.838 62.319 123.465 62.111C123.101 61.8943 122.698 61.786 122.256 61.786C121.814 61.786 121.411 61.89 121.047 62.098C120.683 62.306 120.393 62.6093 120.176 63.008C119.96 63.4067 119.851 63.8747 119.851 64.412C119.851 64.958 119.96 65.4347 120.176 65.842C120.393 66.2407 120.683 66.5483 121.047 66.765C121.411 66.973 121.814 67.077 122.256 67.077C122.698 67.077 123.101 66.973 123.465 66.765C123.838 66.5483 124.133 66.2407 124.349 65.842C124.566 65.4347 124.674 64.9623 124.674 64.425ZM129.053 62.202C129.295 61.7773 129.651 61.4307 130.119 61.162C130.587 60.8933 131.12 60.759 131.718 60.759C132.359 60.759 132.935 60.9107 133.447 61.214C133.958 61.5173 134.361 61.9463 134.656 62.501C134.95 63.047 135.098 63.684 135.098 64.412C135.098 65.1313 134.95 65.7727 134.656 66.336C134.361 66.8993 133.954 67.337 133.434 67.649C132.922 67.961 132.35 68.117 131.718 68.117C131.102 68.117 130.561 67.9827 130.093 67.714C129.633 67.4453 129.287 67.103 129.053 66.687V68H127.87V58.38H129.053V62.202ZM133.889 64.412C133.889 63.8747 133.78 63.4067 133.564 63.008C133.347 62.6093 133.052 62.306 132.68 62.098C132.316 61.89 131.913 61.786 131.471 61.786C131.037 61.786 130.634 61.8943 130.262 62.111C129.898 62.319 129.603 62.6267 129.378 63.034C129.161 63.4327 129.053 63.8963 129.053 64.425C129.053 64.9623 129.161 65.4347 129.378 65.842C129.603 66.2407 129.898 66.5483 130.262 66.765C130.634 66.973 131.037 67.077 131.471 67.077C131.913 67.077 132.316 66.973 132.68 66.765C133.052 66.5483 133.347 66.2407 133.564 65.842C133.78 65.4347 133.889 64.958 133.889 64.412ZM137.266 59.719C137.04 59.719 136.85 59.641 136.694 59.485C136.538 59.329 136.46 59.1383 136.46 58.913C136.46 58.6877 136.538 58.497 136.694 58.341C136.85 58.185 137.04 58.107 137.266 58.107C137.482 58.107 137.664 58.185 137.812 58.341C137.968 58.497 138.046 58.6877 138.046 58.913C138.046 59.1383 137.968 59.329 137.812 59.485C137.664 59.641 137.482 59.719 137.266 59.719ZM137.838 60.876V68H136.655V60.876H137.838ZM141.037 58.38V68H139.854V58.38H141.037ZM143.664 59.719C143.439 59.719 143.248 59.641 143.092 59.485C142.936 59.329 142.858 59.1383 142.858 58.913C142.858 58.6877 142.936 58.497 143.092 58.341C143.248 58.185 143.439 58.107 143.664 58.107C143.881 58.107 144.063 58.185 144.21 58.341C144.366 58.497 144.444 58.6877 144.444 58.913C144.444 59.1383 144.366 59.329 144.21 59.485C144.063 59.641 143.881 59.719 143.664 59.719ZM144.236 60.876V68H143.053V60.876H144.236ZM145.81 64.412C145.81 63.684 145.958 63.047 146.252 62.501C146.547 61.9463 146.95 61.5173 147.461 61.214C147.981 60.9107 148.562 60.759 149.203 60.759C149.758 60.759 150.274 60.889 150.75 61.149C151.227 61.4003 151.591 61.734 151.842 62.15V58.38H153.038V68H151.842V66.661C151.608 67.0857 151.262 67.4367 150.802 67.714C150.343 67.9827 149.806 68.117 149.19 68.117C148.558 68.117 147.981 67.961 147.461 67.649C146.95 67.337 146.547 66.8993 146.252 66.336C145.958 65.7727 145.81 65.1313 145.81 64.412ZM151.842 64.425C151.842 63.8877 151.734 63.4197 151.517 63.021C151.301 62.6223 151.006 62.319 150.633 62.111C150.269 61.8943 149.866 61.786 149.424 61.786C148.982 61.786 148.579 61.89 148.215 62.098C147.851 62.306 147.561 62.6093 147.344 63.008C147.128 63.4067 147.019 63.8747 147.019 64.412C147.019 64.958 147.128 65.4347 147.344 65.842C147.561 66.2407 147.851 66.5483 148.215 66.765C148.579 66.973 148.982 67.077 149.424 67.077C149.866 67.077 150.269 66.973 150.633 66.765C151.006 66.5483 151.301 66.2407 151.517 65.842C151.734 65.4347 151.842 64.9623 151.842 64.425ZM154.596 64.412C154.596 63.684 154.743 63.047 155.038 62.501C155.332 61.9463 155.735 61.5173 156.247 61.214C156.767 60.9107 157.343 60.759 157.976 60.759C158.6 60.759 159.141 60.8933 159.601 61.162C160.06 61.4307 160.402 61.7687 160.628 62.176V60.876H161.824V68H160.628V66.674C160.394 67.09 160.043 67.4367 159.575 67.714C159.115 67.9827 158.578 68.117 157.963 68.117C157.33 68.117 156.758 67.961 156.247 67.649C155.735 67.337 155.332 66.8993 155.038 66.336C154.743 65.7727 154.596 65.1313 154.596 64.412ZM160.628 64.425C160.628 63.8877 160.519 63.4197 160.303 63.021C160.086 62.6223 159.791 62.319 159.419 62.111C159.055 61.8943 158.652 61.786 158.21 61.786C157.768 61.786 157.365 61.89 157.001 62.098C156.637 62.306 156.346 62.6093 156.13 63.008C155.913 63.4067 155.805 63.8747 155.805 64.412C155.805 64.958 155.913 65.4347 156.13 65.842C156.346 66.2407 156.637 66.5483 157.001 66.765C157.365 66.973 157.768 67.077 158.21 67.077C158.652 67.077 159.055 66.973 159.419 66.765C159.791 66.5483 160.086 66.2407 160.303 65.842C160.519 65.4347 160.628 64.9623 160.628 64.425ZM163.381 64.412C163.381 63.684 163.528 63.047 163.823 62.501C164.117 61.9463 164.52 61.5173 165.032 61.214C165.552 60.9107 166.132 60.759 166.774 60.759C167.328 60.759 167.844 60.889 168.321 61.149C168.797 61.4003 169.161 61.734 169.413 62.15V58.38H170.609V68H169.413V66.661C169.179 67.0857 168.832 67.4367 168.373 67.714C167.913 67.9827 167.376 68.117 166.761 68.117C166.128 68.117 165.552 67.961 165.032 67.649C164.52 67.337 164.117 66.8993 163.823 66.336C163.528 65.7727 163.381 65.1313 163.381 64.412ZM169.413 64.425C169.413 63.8877 169.304 63.4197 169.088 63.021C168.871 62.6223 168.576 62.319 168.204 62.111C167.84 61.8943 167.437 61.786 166.995 61.786C166.553 61.786 166.15 61.89 165.786 62.098C165.422 62.306 165.131 62.6093 164.915 63.008C164.698 63.4067 164.59 63.8747 164.59 64.412C164.59 64.958 164.698 65.4347 164.915 65.842C165.131 66.2407 165.422 66.5483 165.786 66.765C166.15 66.973 166.553 67.077 166.995 67.077C167.437 67.077 167.84 66.973 168.204 66.765C168.576 66.5483 168.871 66.2407 169.088 65.842C169.304 65.4347 169.413 64.9623 169.413 64.425Z" fill="#00FFFF"/>
<line x1="6.76865" y1="64.8174" x2="91.1129" y2="64.5037" stroke="#00FFFF"/>
<path d="M174.115 64.5H256.115M256.115 64.5L253.487 61M256.115 64.5L253.487 68" stroke="#00FFFF"/>
<path d="M115.616 159.165C115.616 159.39 115.603 159.629 115.577 159.88H109.883C109.926 160.582 110.164 161.132 110.598 161.531C111.04 161.921 111.573 162.116 112.197 162.116C112.708 162.116 113.133 161.999 113.471 161.765C113.817 161.522 114.06 161.202 114.199 160.803H115.473C115.282 161.488 114.901 162.047 114.329 162.48C113.757 162.905 113.046 163.117 112.197 163.117C111.521 163.117 110.914 162.965 110.377 162.662C109.848 162.359 109.432 161.93 109.129 161.375C108.825 160.812 108.674 160.162 108.674 159.425C108.674 158.688 108.821 158.043 109.116 157.488C109.41 156.933 109.822 156.509 110.351 156.214C110.888 155.911 111.503 155.759 112.197 155.759C112.873 155.759 113.471 155.906 113.991 156.201C114.511 156.496 114.909 156.903 115.187 157.423C115.473 157.934 115.616 158.515 115.616 159.165ZM114.394 158.918C114.394 158.467 114.294 158.082 114.095 157.761C113.895 157.432 113.622 157.185 113.276 157.02C112.938 156.847 112.561 156.76 112.145 156.76C111.547 156.76 111.035 156.951 110.611 157.332C110.195 157.713 109.956 158.242 109.896 158.918H114.394ZM120.648 155.746C121.515 155.746 122.217 156.01 122.754 156.539C123.292 157.059 123.56 157.813 123.56 158.801V163H122.39V158.97C122.39 158.259 122.213 157.718 121.857 157.345C121.502 156.964 121.017 156.773 120.401 156.773C119.777 156.773 119.279 156.968 118.906 157.358C118.542 157.748 118.36 158.316 118.36 159.061V163H117.177V155.876H118.36V156.89C118.594 156.526 118.911 156.244 119.309 156.045C119.717 155.846 120.163 155.746 120.648 155.746ZM131.993 159.165C131.993 159.39 131.98 159.629 131.954 159.88H126.26C126.303 160.582 126.541 161.132 126.975 161.531C127.417 161.921 127.95 162.116 128.574 162.116C129.085 162.116 129.51 161.999 129.848 161.765C130.194 161.522 130.437 161.202 130.576 160.803H131.85C131.659 161.488 131.278 162.047 130.706 162.48C130.134 162.905 129.423 163.117 128.574 163.117C127.898 163.117 127.291 162.965 126.754 162.662C126.225 162.359 125.809 161.93 125.506 161.375C125.202 160.812 125.051 160.162 125.051 159.425C125.051 158.688 125.198 158.043 125.493 157.488C125.787 156.933 126.199 156.509 126.728 156.214C127.265 155.911 127.88 155.759 128.574 155.759C129.25 155.759 129.848 155.906 130.368 156.201C130.888 156.496 131.286 156.903 131.564 157.423C131.85 157.934 131.993 158.515 131.993 159.165ZM130.771 158.918C130.771 158.467 130.671 158.082 130.472 157.761C130.272 157.432 129.999 157.185 129.653 157.02C129.315 156.847 128.938 156.76 128.522 156.76C127.924 156.76 127.412 156.951 126.988 157.332C126.572 157.713 126.333 158.242 126.273 158.918H130.771ZM134.737 157.033C134.945 156.626 135.24 156.309 135.621 156.084C136.011 155.859 136.484 155.746 137.038 155.746V156.968H136.726C135.4 156.968 134.737 157.687 134.737 159.126V163H133.554V155.876H134.737V157.033ZM141.342 155.759C141.957 155.759 142.494 155.893 142.954 156.162C143.422 156.431 143.768 156.769 143.994 157.176V155.876H145.19V163.156C145.19 163.806 145.051 164.382 144.774 164.885C144.496 165.396 144.098 165.795 143.578 166.081C143.066 166.367 142.468 166.51 141.784 166.51C140.848 166.51 140.068 166.289 139.444 165.847C138.82 165.405 138.451 164.803 138.339 164.04H139.509C139.639 164.473 139.907 164.82 140.315 165.08C140.722 165.349 141.212 165.483 141.784 165.483C142.434 165.483 142.962 165.279 143.37 164.872C143.786 164.465 143.994 163.893 143.994 163.156V161.661C143.76 162.077 143.413 162.424 142.954 162.701C142.494 162.978 141.957 163.117 141.342 163.117C140.709 163.117 140.133 162.961 139.613 162.649C139.101 162.337 138.698 161.899 138.404 161.336C138.109 160.773 137.962 160.131 137.962 159.412C137.962 158.684 138.109 158.047 138.404 157.501C138.698 156.946 139.101 156.517 139.613 156.214C140.133 155.911 140.709 155.759 141.342 155.759ZM143.994 159.425C143.994 158.888 143.885 158.42 143.669 158.021C143.452 157.622 143.157 157.319 142.785 157.111C142.421 156.894 142.018 156.786 141.576 156.786C141.134 156.786 140.731 156.89 140.367 157.098C140.003 157.306 139.712 157.609 139.496 158.008C139.279 158.407 139.171 158.875 139.171 159.412C139.171 159.958 139.279 160.435 139.496 160.842C139.712 161.241 140.003 161.548 140.367 161.765C140.731 161.973 141.134 162.077 141.576 162.077C142.018 162.077 142.421 161.973 142.785 161.765C143.157 161.548 143.452 161.241 143.669 160.842C143.885 160.435 143.994 159.962 143.994 159.425ZM148.372 155.876V163H147.189V155.876H148.372ZM149.048 153.861L146.279 155.343V154.459L149.048 152.834V153.861ZM149.946 159.412C149.946 158.684 150.094 158.047 150.388 157.501C150.683 156.946 151.086 156.517 151.597 156.214C152.117 155.911 152.694 155.759 153.326 155.759C153.95 155.759 154.492 155.893 154.951 156.162C155.411 156.431 155.753 156.769 155.978 157.176V155.876H157.174V163H155.978V161.674C155.744 162.09 155.393 162.437 154.925 162.714C154.466 162.983 153.929 163.117 153.313 163.117C152.681 163.117 152.109 162.961 151.597 162.649C151.086 162.337 150.683 161.899 150.388 161.336C150.094 160.773 149.946 160.131 149.946 159.412ZM155.978 159.425C155.978 158.888 155.87 158.42 155.653 158.021C155.437 157.622 155.142 157.319 154.769 157.111C154.405 156.894 154.002 156.786 153.56 156.786C153.118 156.786 152.715 156.89 152.351 157.098C151.987 157.306 151.697 157.609 151.48 158.008C151.264 158.407 151.155 158.875 151.155 159.412C151.155 159.958 151.264 160.435 151.48 160.842C151.697 161.241 151.987 161.548 152.351 161.765C152.715 161.973 153.118 162.077 153.56 162.077C154.002 162.077 154.405 161.973 154.769 161.765C155.142 161.548 155.437 161.241 155.653 160.842C155.87 160.435 155.978 159.962 155.978 159.425Z" fill="#00FFFF"/>
<line x1="6.77051" y1="159.551" x2="105.115" y2="159.551" stroke="#00FFFF"/>
<path d="M161.115 160H256.115M256.115 160L253.07 157M256.115 160L253.07 163" stroke="#00FFFF"/>
</svg>
